<svg xmlns="http://www.w3.org/2000/svg" xmlns:xlink="http://www.w3.org/1999/xlink" width="500" zoomAndPan="magnify" viewBox="0 0 375 374.999991" height="500" preserveAspectRatio="xMidYMid meet" version="1.0"><defs><clipPath id="34f62ed748"><path d="M 91 332 L 281 332 L 281 369.753906 L 91 369.753906 Z M 91 332 " clip-rule="nonzero"/></clipPath><clipPath id="ed63b698d1"><path d="M 37 5.402344 L 338.355469 5.402344 L 338.355469 328 L 37 328 Z M 37 5.402344 " clip-rule="nonzero"/></clipPath></defs><g clip-path="url(#34f62ed748)"><path fill="#000000" d="M 91.046875 332.054688 L 280.140625 332.054688 L 280.140625 369.761719 L 91.046875 369.761719 Z M 91.046875 332.054688 " fill-opacity="1" fill-rule="nonzero"/></g><g clip-path="url(#ed63b698d1)"><path fill="#000000" d="M 336.15625 16.777344 C 334.628906 14.976562 332.386719 13.941406 330.023438 13.941406 L 274.8125 13.941406 C 274.578125 8.773438 274.371094 5.253906 274.371094 5.253906 L 94.515625 5.253906 C 94.515625 5.253906 94.171875 6.953125 94.003906 13.941406 L 45.214844 13.941406 C 42.855469 13.941406 40.609375 14.980469 39.082031 16.777344 C 37.554688 18.574219 36.894531 20.957031 37.28125 23.285156 C 37.457031 24.363281 41.742188 50.0625 49.453125 79.757812 C 54.007812 97.304688 58.8125 112.570312 63.742188 125.117188 C 66.71875 132.703125 69.785156 139.402344 72.859375 145.023438 C 76.382812 151.480469 80.050781 156.753906 83.75 160.703125 C 84.785156 161.804688 85.625 162.765625 86.433594 163.691406 C 88.140625 165.648438 89.753906 167.5 92.03125 169.195312 C 94.398438 170.949219 97.160156 172.300781 100.988281 173.582031 C 106.976562 175.582031 116.566406 177.707031 133.289062 181.21875 C 144.074219 193.195312 157.339844 206.789062 163.945312 213.488281 L 163.816406 213.488281 C 163.816406 213.488281 163.921875 213.539062 164.101562 213.644531 C 166.59375 216.167969 168.089844 217.664062 168.089844 217.664062 C 168.089844 217.664062 168.210938 217.683594 168.441406 217.71875 C 169.121094 218.785156 169.660156 220.054688 169.84375 221.519531 C 170.515625 226.878906 170.515625 279.113281 170.515625 279.113281 C 170.515625 279.113281 161.136719 301.214844 153.09375 302.554688 L 128.292969 302.554688 L 128.292969 328 L 242.890625 328 L 242.890625 302.554688 L 220.773438 302.554688 C 220.773438 302.554688 205.921875 286.734375 203.347656 281.125 C 201.585938 277.269531 202.675781 221.519531 202.675781 221.519531 L 204.089844 218.140625 C 204.378906 217.992188 204.644531 217.835938 204.878906 217.664062 C 210.226562 213.785156 224.640625 197.894531 236.917969 182.269531 C 256.789062 178.113281 267.6875 175.769531 274.25 173.578125 C 278.078125 172.300781 280.839844 170.945312 283.207031 169.1875 C 285.484375 167.496094 287.101562 165.648438 288.804688 163.6875 C 289.617188 162.761719 290.453125 161.800781 291.488281 160.695312 C 295.191406 156.753906 298.855469 151.476562 302.378906 145.019531 C 305.453125 139.398438 308.519531 132.699219 311.5 125.113281 C 316.421875 112.5625 321.230469 97.300781 325.789062 79.753906 C 333.496094 50.050781 337.777344 24.359375 337.957031 23.28125 C 338.34375 20.957031 337.6875 18.574219 336.15625 16.777344 Z M 101.625 156.292969 C 100.777344 155.664062 99.988281 154.777344 98.554688 153.136719 C 97.695312 152.148438 96.71875 151.027344 95.480469 149.710938 C 89.996094 143.867188 84.363281 133.636719 78.730469 119.304688 C 74.042969 107.371094 69.441406 92.75 65.046875 75.839844 C 60.25 57.363281 56.753906 40.144531 54.835938 30.007812 L 93.953125 30.007812 C 94.023438 36.386719 94.195312 44.351562 94.515625 54.269531 C 95.855469 95.921875 110.472656 148.179688 117.402344 161.328125 C 112.382812 160.167969 108.683594 159.207031 106.082031 158.339844 C 103.335938 157.421875 102.257812 156.765625 101.625 156.292969 Z M 310.226562 75.726562 C 305.832031 92.652344 301.222656 107.296875 296.535156 119.25 C 290.898438 133.613281 285.253906 143.859375 279.761719 149.710938 C 278.527344 151.027344 277.550781 152.148438 276.6875 153.136719 C 275.253906 154.78125 274.464844 155.667969 273.617188 156.292969 C 272.984375 156.765625 271.90625 157.421875 269.15625 158.339844 C 265.480469 159.5625 259.605469 160.984375 250.902344 162.878906 C 252.058594 161.046875 253.082031 159.324219 253.929688 157.753906 C 263.46875 140.054688 273.613281 62.886719 274.972656 50.632812 C 275.5 45.859375 275.527344 37.925781 275.363281 30.007812 L 320.402344 30.007812 C 318.496094 40.113281 315.015625 57.273438 310.226562 75.726562 Z M 310.226562 75.726562 " fill-opacity="1" fill-rule="nonzero"/></g></svg>