<svg xmlns="http://www.w3.org/2000/svg" xmlns:xlink="http://www.w3.org/1999/xlink" width="500" zoomAndPan="magnify" viewBox="0 0 375 374.999991" height="500" preserveAspectRatio="xMidYMid meet" version="1.0"><defs><clipPath id="87b75d8515"><path d="M 29.789062 44.125 L 345.507812 44.125 L 345.507812 330 L 29.789062 330 Z M 29.789062 44.125 " clip-rule="nonzero"/></clipPath></defs><g clip-path="url(#87b75d8515)"><path fill="#12191E" d="M 344.824219 231.71875 C 344.308594 230.441406 342.847656 229.824219 341.570312 230.335938 C 340.726562 230.675781 320.820312 238.890625 314.277344 259.238281 C 313.375 262.03125 312.601562 265.335938 311.9375 268.957031 C 305.863281 264.75 299.8125 261.050781 293.878906 257.914062 C 294.296875 256.503906 294.523438 255.015625 294.523438 253.476562 C 294.523438 244.855469 287.5 237.839844 278.863281 237.839844 C 272.707031 237.839844 267.371094 241.40625 264.8125 246.578125 C 262.265625 245.941406 259.707031 245.394531 257.15625 244.945312 L 263.992188 212.6875 C 274.054688 220.246094 288.195312 221.902344 305.996094 221.902344 L 311.320312 221.902344 C 317.851562 221.902344 323.320312 217.234375 324.320312 210.796875 C 326.054688 199.664062 327.734375 184.996094 325.886719 178.328125 C 323.523438 169.792969 312.667969 158.507812 308.425781 154.339844 C 315.132812 148.085938 334.480469 151.308594 341.871094 153.238281 C 343.207031 153.582031 344.574219 152.785156 344.925781 151.453125 C 345.273438 150.121094 344.476562 148.757812 343.140625 148.40625 C 341.738281 148.039062 335.652344 146.527344 328.515625 145.910156 C 301.738281 119.472656 232.714844 58.632812 154.707031 47.183594 C 140.886719 45.15625 127.425781 44.125 114.699219 44.125 C 66.992188 44.125 43.109375 58.628906 42.121094 59.246094 C 39.699219 60.746094 38.253906 63.34375 38.253906 66.1875 L 38.253906 98.03125 C 33.234375 101.570312 29.945312 107.402344 29.945312 113.992188 L 29.945312 126.5625 C 29.945312 127.941406 31.066406 129.058594 32.449219 129.058594 C 33.828125 129.058594 34.949219 127.941406 34.949219 126.5625 L 34.949219 113.992188 C 34.949219 105.972656 41.480469 99.449219 49.515625 99.449219 C 57.546875 99.449219 64.082031 105.972656 64.082031 113.992188 L 64.082031 164.378906 C 64.082031 169.054688 60.273438 172.855469 55.589844 172.855469 L 32.449219 172.855469 C 31.066406 172.855469 29.945312 173.972656 29.945312 175.351562 C 29.945312 176.730469 31.066406 177.847656 32.449219 177.847656 L 38.03125 177.847656 L 38.03125 191.429688 C 36.195312 191.152344 34.332031 190.992188 32.449219 190.992188 C 31.066406 190.992188 29.945312 192.109375 29.945312 193.488281 C 29.945312 194.867188 31.066406 195.984375 32.449219 195.984375 C 42.421875 195.984375 51.855469 200.628906 57.9375 208.445312 C 56.53125 212.5625 55.621094 216.628906 55.234375 220.570312 C 53.125 241.914062 70.855469 323.929688 71.613281 327.410156 C 72.3125 330.644531 77.203125 329.585938 76.5 326.355469 C 76.316406 325.507812 58.179688 241.628906 60.207031 221.058594 C 60.664062 216.433594 61.921875 211.589844 63.941406 206.664062 C 67.304688 198.460938 72.054688 191.707031 75.445312 187.484375 C 77.925781 184.402344 79.445312 180.6875 79.847656 176.742188 L 81.175781 163.65625 C 81.542969 160.015625 80.886719 156.347656 79.269531 153.050781 C 75.507812 145.378906 69.179688 130.148438 69.082031 114.355469 L 69.085938 113.5625 C 69.261719 89.777344 83.5625 75.578125 107.34375 75.578125 C 135.109375 75.578125 140.9375 100.578125 140.9375 121.550781 C 140.9375 147.558594 134.851562 167 125.433594 171.078125 C 115.167969 175.523438 97.226562 168.710938 97.046875 168.640625 C 93.941406 167.445312 92.136719 172.101562 95.242188 173.296875 C 95.539062 173.414062 98.328125 174.476562 102.339844 175.511719 L 101.332031 186.933594 C 100.925781 191.527344 102.417969 196.175781 105.425781 199.691406 C 111.601562 206.921875 122.941406 221.226562 129.441406 235.820312 C 131.042969 239.417969 132.890625 244.804688 134.945312 251.886719 L 92.09375 216.445312 C 91.035156 215.566406 89.457031 215.710938 88.574219 216.773438 C 87.695312 217.835938 87.839844 219.410156 88.90625 220.289062 L 158.226562 277.628906 C 158.691406 278.011719 159.257812 278.203125 159.820312 278.203125 C 160.539062 278.203125 161.253906 277.894531 161.746094 277.296875 C 162.628906 276.234375 162.480469 274.664062 161.417969 273.78125 L 158.488281 271.359375 L 220.371094 242.097656 C 223.375 240.675781 226.753906 240.507812 229.886719 241.625 C 233.015625 242.742188 235.519531 245.011719 236.941406 248.011719 C 239.835938 254.132812 237.371094 261.324219 231.324219 264.386719 L 156.59375 302.253906 C 152.054688 304.554688 146.582031 304.261719 142.3125 301.488281 L 84.070312 263.640625 C 82.914062 262.890625 81.363281 263.214844 80.613281 264.371094 C 79.859375 265.527344 80.1875 267.074219 81.34375 267.824219 L 139.585938 305.671875 C 142.292969 307.433594 145.363281 308.445312 148.492188 308.707031 C 150.78125 319.65625 152.242188 327.273438 152.257812 327.351562 C 152.398438 328.089844 152.867188 328.726562 153.527344 329.082031 C 154.191406 329.4375 154.980469 329.476562 155.675781 329.1875 C 156.113281 329.003906 199.859375 310.960938 227.605469 310.960938 C 254.855469 310.960938 276.511719 328.5625 276.804688 328.804688 C 277.273438 329.191406 277.839844 329.378906 278.402344 329.378906 C 279.121094 329.378906 279.832031 329.074219 280.328125 328.480469 C 281.207031 327.417969 281.0625 325.84375 280 324.964844 C 279.066406 324.1875 256.753906 305.96875 227.605469 305.96875 C 202.710938 305.96875 166.925781 319.351562 156.589844 323.4375 C 155.980469 320.34375 154.921875 315.042969 153.554688 308.476562 C 155.378906 308.152344 157.167969 307.5625 158.859375 306.707031 L 217.597656 276.941406 L 217.074219 279.402344 C 215.242188 288.039062 220.792969 296.550781 229.441406 298.375 C 230.554688 298.609375 231.667969 298.722656 232.761719 298.722656 C 240.175781 298.722656 246.851562 293.554688 248.445312 286.03125 L 250.804688 274.898438 C 254.121094 282.457031 259.523438 294.03125 264.261719 300.746094 C 271.691406 311.269531 294.707031 328.183594 295.683594 328.894531 C 296.128906 329.222656 296.648438 329.378906 297.160156 329.378906 C 297.929688 329.378906 298.6875 329.027344 299.179688 328.359375 C 299.996094 327.246094 299.757812 325.6875 298.640625 324.871094 C 298.410156 324.699219 275.3125 307.734375 268.347656 297.867188 C 261.984375 288.851562 254.191406 270.230469 252.609375 266.378906 L 256.117188 249.832031 C 258.527344 250.253906 260.941406 250.761719 263.351562 251.355469 C 263.253906 252.050781 263.203125 252.757812 263.203125 253.476562 C 263.203125 262.097656 270.226562 269.109375 278.863281 269.109375 C 284.171875 269.109375 288.871094 266.457031 291.703125 262.410156 C 298.046875 265.773438 304.535156 269.8125 311.039062 274.433594 C 307.84375 296.339844 307.796875 325.347656 307.796875 326.882812 C 307.796875 328.261719 308.917969 329.378906 310.296875 329.378906 C 311.679688 329.378906 312.800781 328.261719 312.800781 326.882812 C 312.800781 326.417969 312.871094 279.9375 319.039062 260.761719 C 324.839844 242.726562 343.1875 235.070312 343.441406 234.96875 C 344.722656 234.449219 345.339844 232.996094 344.824219 231.71875 Z M 303.671875 216.902344 C 289.617188 216.777344 278.183594 215.449219 269.785156 210.546875 L 304.132812 210.546875 Z M 305.5 191.789062 L 304.597656 204.183594 C 299.410156 201.484375 291.699219 196.789062 287.257812 191.714844 C 290.4375 192.476562 294.371094 193.1875 297.964844 193.1875 C 298.878906 193.1875 299.769531 193.144531 300.621094 193.039062 C 302.578125 192.800781 304.183594 192.324219 305.503906 191.726562 C 305.5 191.746094 305.5 191.769531 305.5 191.789062 Z M 303.808594 180.785156 C 304.484375 182.457031 304.964844 184.21875 305.253906 186.023438 C 304.285156 186.886719 302.679688 187.761719 300.015625 188.085938 C 294.660156 188.734375 286.8125 186.519531 283.839844 185.59375 C 281.171875 175.121094 286.328125 155.34375 293.027344 151.363281 C 296.84375 149.097656 301.839844 149.386719 305.644531 150.140625 C 304.574219 151.015625 303.648438 152.042969 302.90625 153.242188 C 297.800781 161.539062 300.578125 172.800781 303.808594 180.785156 Z M 321.066406 179.660156 C 322.304688 184.128906 321.691406 195.195312 319.378906 210.03125 C 318.757812 214.019531 315.367188 216.910156 311.320312 216.910156 L 308.683594 216.910156 L 310.488281 192.148438 C 310.816406 187.613281 310.109375 183.035156 308.445312 178.917969 C 306.464844 174.019531 303.796875 165.484375 305.84375 158.828125 C 310.273438 163.28125 319.183594 172.867188 321.066406 179.660156 Z M 49.632812 69.621094 L 49.632812 94.460938 C 49.589844 94.460938 49.554688 94.457031 49.515625 94.457031 C 47.324219 94.457031 45.21875 94.824219 43.253906 95.488281 L 43.253906 66.1875 C 43.253906 65.082031 43.816406 64.070312 44.757812 63.484375 C 45.703125 62.898438 68.40625 49.117188 114.699219 49.117188 C 127.183594 49.117188 140.398438 50.128906 153.976562 52.121094 C 227.023438 62.839844 292.328125 117.980469 321.109375 145.671875 C 318.308594 145.753906 315.53125 146.058594 312.972656 146.703125 C 289.773438 124.820312 264.359375 105.542969 239.386719 90.90625 C 209.449219 73.367188 180.402344 62.433594 153.050781 58.421875 C 140.011719 56.507812 127.289062 55.539062 115.238281 55.539062 C 79.6875 55.539062 58.507812 63.8125 51.054688 67.371094 C 50.183594 67.785156 49.632812 68.660156 49.632812 69.621094 Z M 49.402344 195.070312 C 47.363281 194.035156 45.230469 193.191406 43.03125 192.539062 L 43.03125 177.847656 L 49.402344 177.847656 Z M 74.777344 155.246094 C 75.984375 157.707031 76.476562 160.441406 76.199219 163.152344 L 74.871094 176.242188 C 74.570312 179.222656 73.417969 182.03125 71.546875 184.363281 C 68.171875 188.558594 63.53125 195.125 60.007812 203.140625 C 58.304688 201.28125 56.421875 199.617188 54.402344 198.148438 L 54.402344 177.847656 L 55.589844 177.847656 C 63.027344 177.847656 69.082031 171.808594 69.082031 164.378906 L 69.082031 141.476562 C 71 147.105469 73.125 151.875 74.777344 155.246094 Z M 109.226562 196.453125 C 107.085938 193.949219 106.027344 190.640625 106.3125 187.371094 L 107.265625 176.601562 C 110.257812 177.15625 113.550781 177.558594 116.824219 177.558594 C 120.535156 177.558594 124.226562 177.042969 127.421875 175.660156 C 139.015625 170.636719 145.9375 150.410156 145.9375 121.550781 C 145.9375 106.917969 143.269531 95.164062 138.007812 86.609375 C 131.464844 75.976562 121.148438 70.585938 107.34375 70.585938 C 84.800781 70.585938 69.445312 82.511719 65.246094 102.390625 C 62.660156 98.90625 58.9375 96.304688 54.632812 95.140625 L 54.632812 71.21875 C 62.839844 67.542969 82.773438 60.53125 115.238281 60.53125 C 127.046875 60.53125 139.523438 61.480469 152.324219 63.359375 C 199.410156 70.269531 254.109375 99.792969 303.554688 144.777344 C 299.398438 144.339844 294.570312 144.640625 290.472656 147.070312 C 280.832031 152.792969 275.585938 176.925781 279.4375 188.351562 C 281.769531 195.269531 290.152344 201.503906 296.851562 205.550781 L 265.507812 205.550781 L 272.199219 173.992188 C 273.085938 169.8125 272.285156 165.535156 269.949219 161.949219 C 267.617188 158.367188 264.023438 155.90625 259.832031 155.019531 C 255.644531 154.136719 251.359375 154.933594 247.769531 157.265625 C 244.179688 159.59375 241.714844 163.183594 240.828125 167.367188 L 232.730469 205.554688 L 116.585938 205.554688 C 113.8125 201.925781 111.25 198.820312 109.226562 196.453125 Z M 120.28125 210.546875 L 223.21875 210.546875 L 209.195312 216.910156 L 124.640625 216.910156 C 123.199219 214.703125 121.730469 212.570312 120.28125 210.546875 Z M 132.117188 229.800781 C 130.773438 227.121094 129.304688 224.476562 127.761719 221.902344 L 198.199219 221.902344 L 164.839844 237.050781 C 160.351562 239.089844 155.160156 239.191406 150.589844 237.328125 Z M 226.292969 235.914062 C 223.542969 235.816406 220.792969 236.375 218.230469 237.585938 L 154.238281 267.84375 L 141.695312 257.46875 C 139.253906 248.414062 137.042969 241.351562 135.097656 236.40625 L 148.703125 241.953125 C 151.476562 243.082031 154.433594 243.644531 157.386719 243.644531 C 160.644531 243.644531 163.902344 242.960938 166.910156 241.59375 L 231.285156 212.367188 Z M 243.550781 284.996094 C 242.292969 290.9375 236.429688 294.75 230.472656 293.492188 C 224.523438 292.234375 220.707031 286.378906 221.964844 280.4375 L 223.324219 274.039062 L 233.589844 268.839844 C 242.0625 264.542969 245.523438 254.460938 241.460938 245.878906 C 239.472656 241.671875 235.957031 238.492188 231.570312 236.925781 C 231.453125 236.882812 231.332031 236.847656 231.214844 236.808594 L 245.71875 168.398438 C 246.332031 165.519531 248.027344 163.050781 250.496094 161.449219 C 252.964844 159.84375 255.914062 159.292969 258.796875 159.902344 C 261.679688 160.511719 264.152344 162.207031 265.757812 164.671875 C 267.367188 167.136719 267.914062 170.082031 267.304688 172.957031 Z M 278.863281 264.117188 C 272.984375 264.117188 268.203125 259.34375 268.203125 253.476562 C 268.203125 247.605469 272.984375 242.832031 278.863281 242.832031 C 284.742188 242.832031 289.523438 247.605469 289.523438 253.476562 C 289.523438 259.34375 284.742188 264.117188 278.863281 264.117188 Z M 278.863281 264.117188 " fill-opacity="1" fill-rule="nonzero"/></g></svg>
