<svg xmlns="http://www.w3.org/2000/svg" xmlns:xlink="http://www.w3.org/1999/xlink" width="500" zoomAndPan="magnify" viewBox="0 0 375 374.999991" height="500" preserveAspectRatio="xMidYMid meet" version="1.0"><defs><clipPath id="3ad02cd36b"><path d="M 3.585938 51 L 316 51 L 316 366.683594 L 3.585938 366.683594 Z M 3.585938 51 " clip-rule="nonzero"/></clipPath><clipPath id="1ef92963f9"><path d="M 218 8.269531 L 371.085938 8.269531 L 371.085938 162 L 218 162 Z M 218 8.269531 " clip-rule="nonzero"/></clipPath></defs><g clip-path="url(#3ad02cd36b)"><path fill="#2f2e2d" d="M 277.878906 313.671875 C 277.054688 314.835938 274.796875 315.757812 271.828125 315.875 C 271.535156 316.050781 271.1875 316.050781 270.453125 316.050781 L 113.484375 316.050781 C 101.714844 316.050781 89.769531 315.875 77.988281 315.757812 C 72.585938 315.757812 67.066406 315.570312 61.6875 315.570312 C 56.632812 315.570312 51.652344 316.574219 46.421875 316.050781 C 46.238281 316.050781 46.132812 316.050781 45.769531 315.875 C 45.386719 315.875 44.863281 315.757812 44.339844 315.398438 C 41.078125 313.3125 47.832031 308.257812 49.03125 306.707031 C 52.640625 302.175781 92.320312 246.53125 92.878906 245.890625 C 98.222656 237.921875 105.535156 233.402344 113.136719 233.402344 C 124.382812 233.402344 130.078125 245.355469 138.949219 250.351562 C 150.542969 257.140625 158.160156 248.089844 163.886719 238.925781 C 167.765625 232.84375 171.722656 226.613281 175.542969 220.355469 C 177.800781 216.746094 180.175781 212.925781 182.445312 209.105469 C 185.226562 204.757812 187.964844 200.4375 190.746094 195.964844 L 196.300781 186.925781 C 196.835938 186.214844 197.183594 185.714844 197.535156 185.015625 C 199.617188 182.042969 201.992188 180.132812 203.902344 180.132812 C 205.695312 180.132812 207.78125 182.042969 209.664062 185.1875 C 229.074219 219.890625 248.632812 255.058594 267.660156 289.1875 L 276.878906 305.878906 C 277.707031 307.054688 278.078125 308.441406 278.4375 309.492188 C 278.613281 310.878906 278.789062 312.578125 277.878906 313.671875 Z M 96.660156 98.011719 C 119.386719 97.835938 137.773438 116.171875 137.773438 139.097656 C 137.773438 161.800781 119.75 180.015625 97.023438 180.132812 C 74.320312 180.132812 55.992188 161.625 55.992188 139.097656 C 55.992188 116.519531 74.144531 98.1875 96.660156 98.011719 Z M 294.855469 177.722656 C 243.488281 177.722656 201.820312 136.066406 201.820312 84.652344 C 201.820312 72.78125 204.054688 61.433594 208.070312 51.011719 L 44.515625 51.011719 C 40.871094 51.011719 37.261719 51.359375 33.789062 51.894531 C 16.617188 54.65625 3.835938 69.054688 3.835938 86.058594 C 3.835938 166.796875 3.660156 247.4375 3.835938 328 C 3.835938 348.304688 21.484375 366.136719 41.777344 366.3125 L 280.871094 366.3125 C 287.953125 366.3125 294.355469 364.054688 299.910156 359.917969 C 310.480469 351.796875 315.171875 340.675781 315.171875 327.535156 C 315.347656 287.488281 315.347656 247.265625 315.347656 207.019531 L 315.347656 175.460938 C 308.746094 176.929688 301.898438 177.722656 294.855469 177.722656 " fill-opacity="1" fill-rule="nonzero"/></g><g clip-path="url(#1ef92963f9)"><path fill="#2f2e2d" d="M 337.585938 77.253906 L 328.492188 85.886719 C 327.804688 86.550781 326.722656 86.527344 326.046875 85.851562 L 306.8125 66.304688 C 305.707031 65.199219 303.808594 65.976562 303.808594 67.527344 L 303.808594 135.171875 C 303.808594 136.125 303.039062 136.917969 302.074219 136.917969 L 289.21875 136.917969 C 288.265625 136.917969 287.472656 136.125 287.472656 135.171875 L 287.472656 65.394531 C 287.472656 63.847656 285.589844 63.054688 284.492188 64.136719 L 262.152344 86.28125 C 261.417969 87.003906 260.21875 86.957031 259.554688 86.128906 L 251.964844 76.671875 C 251.417969 75.972656 251.464844 74.972656 252.105469 74.34375 L 293.574219 32.894531 C 294.25 32.210938 295.367188 32.210938 296.042969 32.894531 L 337.632812 74.75 C 338.316406 75.449219 338.304688 76.589844 337.585938 77.253906 Z M 294.855469 8.257812 C 252.699219 8.257812 218.503906 42.460938 218.503906 84.652344 C 218.503906 126.84375 252.699219 161.03125 294.855469 161.03125 C 337.027344 161.03125 371.207031 126.84375 371.207031 84.652344 C 371.207031 42.460938 337.027344 8.257812 294.855469 8.257812 " fill-opacity="1" fill-rule="nonzero"/></g></svg>