<svg xmlns="http://www.w3.org/2000/svg" xmlns:xlink="http://www.w3.org/1999/xlink" width="500" zoomAndPan="magnify" viewBox="0 0 375 374.999991" height="500" preserveAspectRatio="xMidYMid meet" version="1.0"><defs><clipPath id="8dae7ff73c"><path d="M 6 17.726562 L 368 17.726562 L 368 357.476562 L 6 357.476562 Z M 6 17.726562 " clip-rule="nonzero"/></clipPath></defs><g clip-path="url(#8dae7ff73c)"><path fill="#0e0e52" d="M 337.6875 177.746094 C 337.6875 177.746094 337.730469 177.746094 337.6875 177.746094 C 344.746094 176.957031 374.855469 168.183594 366.175781 155.625 C 360.15625 146.933594 341.550781 146.765625 334.863281 147.265625 C 332.207031 147.472656 329.382812 147.804688 328.011719 149.800781 C 327.304688 150.839844 326.765625 152.128906 326.390625 153.542969 L 300.8125 78.148438 C 296.78125 66.296875 286.648438 58.4375 275.3125 58.4375 L 246.492188 58.4375 L 246.492188 54.570312 C 246.492188 51.285156 243.835938 48.625 240.554688 48.625 L 236.816406 48.625 L 228.882812 24.964844 C 227.429688 20.636719 223.445312 17.726562 218.960938 17.726562 L 155.753906 17.726562 C 151.269531 17.726562 147.28125 20.636719 145.828125 24.964844 L 137.898438 48.625 L 134.160156 48.625 C 130.878906 48.625 128.21875 51.285156 128.21875 54.570312 L 128.21875 58.4375 L 99.398438 58.4375 C 88.0625 58.4375 77.929688 66.296875 73.902344 78.148438 L 48.320312 153.542969 C 47.945312 152.089844 47.40625 150.839844 46.699219 149.800781 C 45.332031 147.804688 42.507812 147.472656 39.847656 147.265625 C 33.164062 146.765625 14.558594 146.933594 8.535156 155.625 C -0.144531 168.140625 29.964844 176.957031 37.023438 177.746094 L 14.390625 207.273438 C 9.617188 213.507812 7 221.453125 7 229.644531 L 7 288.652344 C 7 294.394531 9.078125 299.550781 12.398438 303.292969 C 13.144531 304.125 13.894531 304.832031 14.683594 305.453125 L 14.683594 341.800781 C 14.683594 350.449219 21.699219 357.476562 30.339844 357.476562 L 70.953125 357.476562 C 79.589844 357.476562 86.609375 350.449219 86.609375 341.800781 L 86.609375 312.023438 C 119 313.105469 152.183594 313.6875 186.195312 313.730469 C 221.035156 313.730469 255.046875 313.148438 288.1875 312.023438 L 288.1875 341.800781 C 288.1875 350.449219 295.203125 357.476562 303.84375 357.476562 L 344.457031 357.476562 C 353.09375 357.476562 360.113281 350.449219 360.113281 341.800781 L 360.113281 305.453125 C 364.765625 301.710938 367.796875 295.558594 367.796875 288.652344 L 367.796875 229.6875 C 367.796875 221.453125 365.179688 213.550781 360.402344 207.3125 Z M 214.683594 25.128906 L 218.875 25.128906 L 218.875 41.222656 L 214.683594 41.222656 Z M 193.171875 25.128906 L 198.070312 25.128906 L 201.101562 30.492188 L 204.339844 25.128906 L 209.160156 25.128906 L 203.550781 33.03125 L 209.199219 41.179688 L 204.300781 41.179688 L 200.9375 35.773438 L 197.820312 41.179688 L 192.753906 41.179688 L 198.484375 33.070312 Z M 178.179688 25.128906 L 183.285156 25.128906 L 189.058594 41.179688 L 184.492188 41.179688 L 183.164062 37.023438 L 178.179688 37.023438 L 176.851562 41.179688 L 172.40625 41.179688 Z M 155.835938 25.128906 L 170.414062 25.128906 L 170.414062 28.371094 L 165.222656 28.371094 L 165.222656 41.222656 L 161.027344 41.222656 L 161.027344 28.414062 L 155.835938 28.414062 Z M 341.175781 277.21875 C 346.824219 277.21875 351.390625 282.125 351.390625 288.195312 C 351.390625 294.269531 346.824219 299.175781 341.175781 299.175781 C 335.527344 299.175781 330.960938 294.269531 330.960938 288.195312 C 330.960938 282.125 335.527344 277.21875 341.175781 277.21875 Z M 55.835938 167.515625 L 84.324219 83.640625 C 86.859375 76.195312 93.296875 71.207031 100.398438 71.207031 L 274.316406 71.207031 C 281.417969 71.207031 287.894531 76.195312 290.386719 83.640625 L 318.835938 167.515625 C 319.207031 168.640625 318.835938 169.804688 318.085938 170.46875 C 317.714844 170.800781 317.214844 171.011719 316.675781 171.011719 L 57.953125 171.011719 C 57.414062 171.011719 56.957031 170.800781 56.542969 170.46875 C 55.835938 169.804688 55.464844 168.640625 55.835938 167.515625 Z M 43.753906 288.238281 C 43.753906 294.308594 39.183594 299.214844 33.535156 299.214844 C 27.886719 299.214844 23.320312 294.308594 23.320312 288.238281 C 23.320312 282.167969 27.886719 277.257812 33.535156 277.257812 C 39.183594 277.257812 43.753906 282.167969 43.753906 288.238281 Z M 85.820312 251.976562 C 79.589844 262.539062 52.640625 258.710938 42.796875 256.59375 C 38.894531 255.761719 34.699219 254.679688 32.125 251.644531 C 24.027344 242.121094 22.613281 221.078125 26.394531 216.960938 C 29.175781 213.882812 34.078125 214.550781 38.105469 215.546875 C 48.570312 218.085938 94.789062 236.714844 85.820312 251.976562 Z M 237.730469 300.921875 C 204.175781 302.5 170.539062 302.5 136.984375 300.921875 C 136.320312 293.1875 135.652344 285.453125 134.988281 277.71875 C 169.875 279.378906 204.839844 279.378906 239.722656 277.71875 C 239.058594 285.453125 238.394531 293.1875 237.730469 300.921875 Z M 262.4375 230.519531 C 259.40625 239.542969 256.417969 248.609375 253.550781 257.632812 C 253.011719 259.292969 251.515625 260.417969 249.816406 260.5 C 208.160156 262.207031 166.46875 262.207031 124.855469 260.5 C 123.113281 260.417969 121.617188 259.292969 121.121094 257.632812 C 118.253906 248.609375 115.304688 239.582031 112.230469 230.519531 C 111.320312 227.773438 113.394531 224.945312 116.300781 225.070312 C 163.644531 227.148438 211.027344 227.148438 258.371094 225.070312 C 261.277344 224.945312 263.394531 227.773438 262.4375 230.519531 Z M 336.609375 215.503906 C 340.636719 214.507812 345.496094 213.84375 348.320312 216.917969 C 352.097656 221.035156 350.6875 242.078125 342.589844 251.601562 C 340.015625 254.636719 335.820312 255.71875 331.914062 256.550781 C 322.074219 258.710938 295.082031 262.496094 288.894531 251.933594 C 279.921875 236.714844 326.144531 218.085938 336.609375 215.503906 Z M 336.609375 215.503906 " fill-opacity="1" fill-rule="nonzero"/></g><path fill="#0e0e52" d="M 180.671875 28.832031 L 179.21875 33.777344 L 182.164062 33.777344 Z M 180.671875 28.832031 " fill-opacity="1" fill-rule="nonzero"/></svg>