<svg xmlns="http://www.w3.org/2000/svg" xmlns:xlink="http://www.w3.org/1999/xlink" width="500" zoomAndPan="magnify" viewBox="0 0 375 374.999991" height="500" preserveAspectRatio="xMidYMid meet" version="1.0"><defs><clipPath id="d349443b83"><path d="M 93 178 L 282 178 L 282 374.839844 L 93 374.839844 Z M 93 178 " clip-rule="nonzero"/></clipPath><clipPath id="4a72720eec"><path d="M 26.933594 56 L 347.933594 56 L 347.933594 110 L 26.933594 110 Z M 26.933594 56 " clip-rule="nonzero"/></clipPath></defs><g clip-path="url(#d349443b83)"><path fill="#0e0e52" d="M 158.34375 348.566406 C 162.554688 348.566406 166.359375 349.949219 169.660156 352.707031 L 182.25 363.1875 C 185.289062 365.726562 189.550781 365.726562 192.601562 363.1875 L 205.191406 352.707031 C 208.835938 349.671875 213.078125 348.285156 217.808594 348.609375 L 234.164062 349.695312 C 238.136719 349.949219 241.566406 347.453125 242.542969 343.609375 L 246.558594 327.730469 C 247.722656 323.132812 250.34375 319.527344 254.359375 316.996094 L 268.226562 308.273438 C 271.578125 306.160156 272.894531 302.113281 271.425781 298.429688 L 265.339844 283.226562 C 263.574219 278.824219 263.574219 274.359375 265.339844 269.957031 L 271.425781 254.746094 C 272.894531 251.074219 271.578125 247.023438 268.226562 244.910156 L 254.359375 236.179688 C 250.34375 233.660156 247.722656 230.042969 246.558594 225.453125 L 242.542969 209.574219 C 241.566406 205.730469 238.117188 203.234375 234.160156 203.488281 L 217.808594 204.574219 C 213.078125 204.886719 208.832031 203.503906 205.191406 200.476562 L 192.601562 189.988281 C 189.554688 187.449219 185.300781 187.449219 182.25 189.988281 L 169.660156 200.476562 C 166.019531 203.503906 161.773438 204.886719 157.035156 204.574219 L 140.683594 203.488281 C 136.71875 203.226562 133.289062 205.730469 132.3125 209.574219 L 128.296875 225.453125 C 127.132812 230.042969 124.507812 233.660156 120.492188 236.179688 L 106.628906 244.914062 C 103.265625 247.027344 101.949219 251.074219 103.425781 254.75 L 109.515625 269.957031 C 111.273438 274.363281 111.273438 278.828125 109.515625 283.230469 L 103.429688 298.429688 C 101.953125 302.113281 103.265625 306.160156 106.628906 308.273438 L 120.492188 317 C 124.511719 319.527344 127.132812 323.132812 128.296875 327.734375 L 132.3125 343.613281 C 133.289062 347.457031 136.734375 349.953125 140.683594 349.695312 L 157.039062 348.613281 C 157.476562 348.574219 157.910156 348.566406 158.34375 348.566406 Z M 187.421875 374.839844 C 183.363281 374.839844 179.296875 373.464844 175.984375 370.699219 L 163.394531 360.21875 C 161.707031 358.808594 159.898438 358.214844 157.691406 358.359375 L 141.335938 359.445312 C 132.730469 360.011719 124.941406 354.371094 122.828125 346.011719 L 118.8125 330.132812 C 118.269531 327.984375 117.148438 326.449219 115.28125 325.269531 L 101.417969 316.546875 C 94.113281 311.953125 91.140625 302.804688 94.34375 294.792969 L 100.433594 279.59375 C 101.257812 277.542969 101.253906 275.632812 100.429688 273.585938 L 94.34375 258.378906 C 91.144531 250.378906 94.113281 241.226562 101.417969 236.636719 L 115.28125 227.914062 C 117.148438 226.734375 118.269531 225.1875 118.8125 223.050781 L 122.828125 207.171875 C 124.945312 198.8125 132.738281 193.167969 141.335938 193.730469 L 157.691406 194.824219 C 159.890625 194.96875 161.707031 194.375 163.402344 192.964844 L 175.988281 182.476562 C 182.617188 176.960938 192.238281 176.960938 198.859375 182.476562 L 211.453125 192.964844 C 213.152344 194.375 214.964844 194.96875 217.164062 194.824219 L 233.519531 193.730469 C 242.121094 193.167969 249.90625 198.8125 252.019531 207.171875 L 256.042969 223.050781 C 256.578125 225.1875 257.699219 226.734375 259.566406 227.902344 L 273.441406 236.636719 C 280.742188 241.226562 283.714844 250.375 280.503906 258.378906 L 274.417969 273.585938 C 273.601562 275.632812 273.601562 277.542969 274.414062 279.597656 L 280.503906 294.792969 C 283.714844 302.804688 280.742188 311.957031 273.441406 316.546875 L 259.566406 325.269531 C 257.707031 326.449219 256.578125 327.988281 256.042969 330.132812 L 252.019531 346.011719 C 249.90625 354.371094 242.117188 360.023438 233.519531 359.445312 L 217.167969 358.359375 C 214.96875 358.214844 213.152344 358.800781 211.453125 360.21875 L 198.863281 370.699219 C 195.546875 373.464844 191.488281 374.839844 187.421875 374.839844 Z M 187.421875 374.839844 " fill-opacity="1" fill-rule="evenodd"/></g><path fill="#0e0e52" d="M 161.570312 326.230469 C 160.738281 326.230469 159.898438 326.015625 159.132812 325.574219 C 156.789062 324.226562 155.992188 321.238281 157.34375 318.898438 L 209.039062 229.398438 C 210.390625 227.054688 213.378906 226.257812 215.722656 227.609375 C 218.054688 228.957031 218.863281 231.945312 217.511719 234.285156 L 165.816406 323.785156 C 164.90625 325.355469 163.257812 326.230469 161.570312 326.230469 Z M 161.570312 326.230469 " fill-opacity="1" fill-rule="evenodd"/><path fill="#0e0e52" d="M 162.171875 236.730469 C 156.367188 236.730469 151.644531 241.449219 151.644531 247.246094 C 151.644531 253.042969 156.363281 257.761719 162.171875 257.761719 C 167.972656 257.761719 172.691406 253.042969 172.691406 247.246094 C 172.691406 241.449219 167.972656 236.730469 162.171875 236.730469 Z M 162.171875 267.535156 C 150.972656 267.535156 141.863281 258.4375 141.863281 247.246094 C 141.863281 236.050781 150.972656 226.953125 162.171875 226.953125 C 173.363281 226.953125 182.472656 236.050781 182.472656 247.246094 C 182.472656 258.4375 173.363281 267.539062 162.171875 267.535156 Z M 162.171875 267.535156 " fill-opacity="1" fill-rule="evenodd"/><path fill="#0e0e52" d="M 212.683594 295.414062 C 206.875 295.414062 202.152344 300.132812 202.152344 305.9375 C 202.15625 311.734375 206.875 316.453125 212.683594 316.453125 C 218.480469 316.453125 223.203125 311.734375 223.203125 305.9375 C 223.199219 300.132812 218.480469 295.414062 212.683594 295.414062 Z M 212.683594 326.230469 C 201.480469 326.230469 192.371094 317.125 192.371094 305.9375 C 192.375 294.742188 201.480469 285.636719 212.679688 285.636719 C 223.871094 285.636719 232.980469 294.742188 232.980469 305.9375 C 232.980469 317.125 223.871094 326.230469 212.683594 326.230469 Z M 212.683594 326.230469 " fill-opacity="1" fill-rule="evenodd"/><path fill="#0e0e52" d="M 125.886719 343.039062 L 72.8125 343.039062 C 70.28125 343.039062 68.167969 341.105469 67.9375 338.585938 L 47.019531 105.101562 C 46.78125 102.414062 48.765625 100.035156 51.457031 99.800781 C 54.132812 99.554688 56.519531 101.539062 56.765625 104.230469 L 77.277344 333.265625 L 125.886719 333.265625 C 128.585938 333.265625 130.773438 335.453125 130.773438 338.152344 C 130.777344 340.851562 128.585938 343.042969 125.886719 343.039062 Z M 302.042969 343.039062 L 248.960938 343.039062 C 246.261719 343.039062 244.070312 340.851562 244.070312 338.152344 C 244.070312 335.453125 246.261719 333.265625 248.960938 333.265625 L 297.570312 333.265625 L 318.089844 104.226562 C 318.328125 101.539062 320.703125 99.554688 323.394531 99.796875 C 326.085938 100.035156 328.074219 102.414062 327.828125 105.101562 L 306.910156 338.585938 C 306.683594 341.105469 304.570312 343.042969 302.042969 343.039062 Z M 302.042969 343.039062 " fill-opacity="1" fill-rule="evenodd"/><g clip-path="url(#4a72720eec)"><path fill="#0e0e52" d="M 36.738281 99.78125 L 338.117188 99.78125 L 338.117188 65.996094 L 36.738281 65.996094 Z M 343.007812 109.558594 L 31.847656 109.558594 C 29.144531 109.558594 26.953125 107.371094 26.953125 104.671875 L 26.953125 61.109375 C 26.953125 58.410156 29.144531 56.222656 31.84375 56.222656 L 343.007812 56.222656 C 345.707031 56.222656 347.898438 58.410156 347.898438 61.109375 L 347.898438 104.671875 C 347.898438 107.371094 345.707031 109.558594 343.007812 109.558594 Z M 343.007812 109.558594 " fill-opacity="1" fill-rule="evenodd"/></g><path fill="#0e0e52" d="M 163.023438 203.734375 C 160.320312 203.734375 158.128906 201.546875 158.128906 198.847656 L 158.132812 61.109375 C 158.132812 58.410156 160.320312 56.222656 163.019531 56.222656 C 165.722656 56.222656 167.910156 58.410156 167.910156 61.109375 L 167.914062 198.847656 C 167.914062 201.546875 165.722656 203.734375 163.023438 203.734375 Z M 211.832031 203.734375 C 209.132812 203.734375 206.941406 201.546875 206.941406 198.847656 L 206.941406 61.109375 C 206.941406 58.410156 209.132812 56.222656 211.832031 56.222656 C 214.53125 56.222656 216.722656 58.410156 216.722656 61.109375 L 216.722656 198.847656 C 216.722656 201.546875 214.53125 203.734375 211.832031 203.734375 Z M 211.832031 203.734375 " fill-opacity="1" fill-rule="evenodd"/><path fill="#0e0e52" d="M 187.898438 65.996094 C 187.3125 65.996094 186.71875 65.886719 186.140625 65.667969 C 183.617188 64.691406 182.363281 61.863281 183.339844 59.34375 C 183.449219 59.046875 183.578125 58.757812 183.722656 58.460938 C 184.011719 57.832031 184.367188 57.007812 184.800781 56.023438 C 190.539062 42.828125 208.019531 2.671875 256.007812 0.101562 C 260.679688 -0.15625 264.878906 2.121094 267.238281 6.160156 L 287.972656 41.734375 C 289.136719 43.730469 288.738281 46.265625 287.03125 47.820312 C 286.539062 48.269531 274.710938 58.824219 252.261719 65.777344 C 249.679688 66.574219 246.945312 65.132812 246.148438 62.550781 C 245.351562 59.972656 246.792969 57.238281 249.367188 56.441406 C 263.359375 52.105469 272.824219 46.214844 277.367188 42.964844 L 258.78125 11.082031 C 258.28125 10.222656 257.523438 9.808594 256.53125 9.867188 C 214.582031 12.109375 198.90625 48.097656 193.761719 59.929688 C 193.289062 61.023438 192.886719 61.933594 192.558594 62.636719 C 192.523438 62.710938 192.488281 62.789062 192.464844 62.867188 C 191.710938 64.808594 189.859375 65.996094 187.898438 65.996094 Z M 187.898438 65.996094 " fill-opacity="1" fill-rule="evenodd"/><path fill="#0e0e52" d="M 186.945312 65.996094 C 184.984375 65.996094 183.125 64.800781 182.378906 62.859375 C 182.355469 62.789062 182.328125 62.714844 182.285156 62.636719 C 181.953125 61.933594 181.554688 61.023438 181.078125 59.929688 C 175.933594 48.097656 160.269531 12.109375 118.316406 9.867188 C 117.316406 9.808594 116.558594 10.222656 116.058594 11.082031 L 97.484375 42.964844 C 102.019531 46.214844 111.484375 52.105469 125.476562 56.441406 C 128.058594 57.238281 129.5 59.972656 128.703125 62.550781 C 127.90625 65.132812 125.164062 66.574219 122.582031 65.777344 C 100.144531 58.824219 88.316406 48.269531 87.820312 47.820312 C 86.109375 46.265625 85.714844 43.730469 86.878906 41.734375 L 107.613281 6.160156 C 109.972656 2.121094 114.175781 -0.144531 118.839844 0.101562 C 166.824219 2.671875 184.304688 42.828125 190.054688 56.035156 C 190.480469 57.011719 190.835938 57.832031 191.132812 58.472656 C 191.269531 58.757812 191.398438 59.054688 191.515625 59.351562 C 192.484375 61.875 191.226562 64.699219 188.707031 65.667969 C 188.128906 65.886719 187.53125 65.996094 186.945312 65.996094 Z M 186.945312 65.996094 " fill-opacity="1" fill-rule="evenodd"/></svg>