<svg xmlns="http://www.w3.org/2000/svg" xmlns:xlink="http://www.w3.org/1999/xlink" width="500" zoomAndPan="magnify" viewBox="0 0 375 374.999991" height="500" preserveAspectRatio="xMidYMid meet" version="1.0"><defs><clipPath id="42ae2ed521"><path d="M 0 11.589844 L 223 11.589844 L 223 67 L 0 67 Z M 0 11.589844 " clip-rule="nonzero"/></clipPath><clipPath id="73f7628170"><path d="M 1 308 L 224 308 L 224 363.316406 L 1 363.316406 Z M 1 308 " clip-rule="nonzero"/></clipPath><clipPath id="7f7d63d349"><path d="M 193 11.589844 L 375 11.589844 L 375 363 L 193 363 Z M 193 11.589844 " clip-rule="nonzero"/></clipPath></defs><path fill="#040606" d="M 66.511719 93.09375 C 69.710938 119.300781 89.789062 156.554688 111.527344 156.554688 L 111.527344 162.253906 L 111.605469 156.554688 C 133.386719 156.464844 153.1875 119.011719 156.167969 92.710938 Z M 111.527344 167.957031 C 80.089844 167.953125 55.371094 119.171875 54.679688 87.542969 C 54.648438 86.015625 55.230469 84.535156 56.296875 83.441406 C 57.363281 82.347656 58.828125 81.726562 60.355469 81.71875 L 162.226562 81.289062 C 162.230469 81.289062 162.242188 81.289062 162.25 81.289062 C 163.769531 81.289062 165.226562 81.898438 166.296875 82.976562 C 167.375 84.0625 167.96875 85.535156 167.949219 87.066406 C 167.523438 118.792969 143.160156 167.820312 111.65625 167.957031 C 111.644531 167.957031 111.535156 167.957031 111.527344 167.957031 " fill-opacity="1" fill-rule="nonzero"/><g clip-path="url(#42ae2ed521)"><path fill="#040606" d="M 204.679688 23 L 17.4375 23.792969 C 14.113281 23.808594 11.421875 26.523438 11.433594 29.847656 L 11.515625 49.253906 C 11.53125 52.5625 14.234375 55.253906 17.542969 55.253906 L 17.542969 60.953125 L 17.570312 55.253906 L 204.785156 54.460938 C 206.398438 54.453125 207.910156 53.824219 209.039062 52.679688 C 210.175781 51.535156 210.796875 50.019531 210.785156 48.414062 L 210.707031 29 C 210.691406 25.691406 207.992188 23 204.679688 23 Z M 17.542969 66.652344 C 7.972656 66.652344 0.15625 58.867188 0.117188 49.300781 L 0.03125 29.894531 C -0.00390625 20.285156 7.78125 12.4375 17.390625 12.398438 L 204.605469 11.605469 C 214.25 11.605469 222.066406 19.386719 222.109375 28.953125 L 222.191406 48.359375 C 222.210938 53.015625 220.417969 57.398438 217.136719 60.703125 C 213.859375 64.007812 209.488281 65.839844 204.835938 65.855469 L 17.617188 66.652344 C 17.617188 66.652344 17.550781 66.652344 17.542969 66.652344 " fill-opacity="1" fill-rule="nonzero"/></g><path fill="#040606" d="M 30.117188 66.601562 C 33.601562 107.777344 63.945312 172.226562 102.03125 181.972656 C 104.546875 182.617188 106.308594 184.875 106.320312 187.46875 C 106.332031 190.0625 104.585938 192.335938 102.082031 193.003906 C 64.078125 203.078125 34.289062 267.777344 31.15625 308.976562 L 193.375 308.289062 C 189.890625 267.113281 159.546875 202.664062 121.457031 192.917969 C 118.945312 192.273438 117.183594 190.015625 117.171875 187.421875 C 117.160156 184.824219 118.902344 182.554688 121.410156 181.886719 C 159.410156 171.808594 189.203125 107.113281 192.335938 65.910156 Z M 25.1875 320.398438 C 23.667969 320.398438 22.210938 319.792969 21.140625 318.710938 C 20.0625 317.628906 19.46875 316.152344 19.488281 314.625 C 19.796875 291.347656 28.523438 261.1875 42.253906 235.90625 C 54.65625 213.078125 69.6875 196.40625 85.570312 187.558594 C 69.609375 178.847656 54.4375 162.304688 41.839844 139.578125 C 27.894531 114.417969 18.910156 84.328125 18.402344 61.050781 C 18.371094 59.519531 18.953125 58.042969 20.019531 56.949219 C 21.085938 55.855469 22.550781 55.234375 24.078125 55.230469 L 198.28125 54.488281 C 198.285156 54.488281 198.292969 54.488281 198.304688 54.488281 C 199.824219 54.488281 201.28125 55.097656 202.351562 56.175781 C 203.425781 57.261719 204.023438 58.734375 204.003906 60.261719 C 203.691406 83.542969 194.964844 113.707031 181.234375 138.980469 C 168.832031 161.808594 153.804688 178.484375 137.917969 187.332031 C 153.878906 196.039062 169.050781 212.585938 181.648438 235.3125 C 195.597656 260.472656 204.578125 290.5625 205.089844 313.839844 C 205.121094 315.367188 204.539062 316.84375 203.472656 317.941406 C 202.40625 319.035156 200.941406 319.65625 199.410156 319.664062 L 25.210938 320.398438 C 25.210938 320.398438 25.195312 320.398438 25.1875 320.398438 " fill-opacity="1" fill-rule="nonzero"/><path fill="#040606" d="M 111.957031 217.140625 C 89.265625 217.234375 68.703125 256.167969 65.699219 283.378906 L 158.617188 282.984375 C 155.378906 255.863281 134.535156 217.140625 111.957031 217.140625 Z M 59.625 294.800781 C 58.105469 294.800781 56.648438 294.195312 55.578125 293.113281 C 54.5 292.027344 53.90625 290.554688 53.925781 289.027344 C 54.363281 256.359375 79.421875 205.878906 111.824219 205.742188 C 144.292969 205.742188 169.722656 255.96875 170.433594 288.535156 C 170.464844 290.0625 169.886719 291.542969 168.816406 292.636719 C 167.75 293.730469 166.289062 294.351562 164.757812 294.355469 L 59.648438 294.800781 C 59.640625 294.800781 59.632812 294.800781 59.625 294.800781 " fill-opacity="1" fill-rule="nonzero"/><g clip-path="url(#73f7628170)"><path fill="#040606" d="M 205.949219 319.636719 L 18.703125 320.429688 C 17.09375 320.433594 15.582031 321.070312 14.449219 322.210938 C 13.316406 323.351562 12.695312 324.867188 12.703125 326.480469 L 12.785156 345.886719 C 12.800781 349.191406 15.503906 351.886719 18.8125 351.886719 L 18.8125 357.585938 L 18.839844 351.886719 L 206.054688 351.09375 C 207.664062 351.085938 209.175781 350.457031 210.308594 349.308594 C 211.445312 348.167969 212.0625 346.652344 212.058594 345.042969 L 211.972656 325.636719 C 211.960938 322.328125 209.253906 319.636719 205.949219 319.636719 Z M 18.8125 363.285156 C 9.246094 363.285156 1.425781 355.503906 1.382812 345.9375 L 1.300781 326.527344 C 1.28125 321.875 3.074219 317.488281 6.351562 314.1875 C 9.632812 310.878906 14 309.050781 18.65625 309.027344 L 205.875 308.238281 C 215.515625 308.238281 223.332031 316.019531 223.375 325.585938 L 223.457031 344.992188 C 223.476562 349.648438 221.683594 354.03125 218.402344 357.339844 C 215.125 360.640625 210.757812 362.472656 206.101562 362.492188 L 18.886719 363.285156 C 18.886719 363.285156 18.820312 363.285156 18.8125 363.285156 " fill-opacity="1" fill-rule="nonzero"/></g><path fill="#040606" d="M 343.03125 192.746094 L 316.875 192.746094 C 313.726562 192.746094 311.175781 190.195312 311.175781 187.046875 C 311.175781 183.902344 313.726562 181.351562 316.875 181.351562 L 343.03125 181.351562 C 346.179688 181.351562 348.730469 183.902344 348.730469 187.046875 C 348.730469 190.195312 346.179688 192.746094 343.03125 192.746094 " fill-opacity="1" fill-rule="nonzero"/><path fill="#040606" d="M 260.957031 92.597656 C 259.9375 92.597656 258.902344 92.324219 257.972656 91.75 C 255.289062 90.097656 254.460938 86.585938 256.113281 83.90625 L 269.84375 61.648438 C 271.496094 58.972656 275.007812 58.140625 277.6875 59.792969 C 280.371094 61.445312 281.199219 64.953125 279.546875 67.632812 L 265.8125 89.890625 C 264.734375 91.636719 262.871094 92.597656 260.957031 92.597656 " fill-opacity="1" fill-rule="nonzero"/><path fill="#040606" d="M 321.609375 268.25 C 320.589844 268.25 319.554688 267.976562 318.625 267.402344 L 296.355469 253.671875 C 293.675781 252.023438 292.84375 248.507812 294.496094 245.832031 C 296.148438 243.152344 299.660156 242.320312 302.339844 243.972656 L 324.605469 257.699219 C 327.285156 259.351562 328.117188 262.863281 326.464844 265.539062 C 325.386719 267.289062 323.519531 268.25 321.609375 268.25 " fill-opacity="1" fill-rule="nonzero"/><path fill="#040606" d="M 300.894531 133.546875 C 298.933594 133.546875 297.027344 132.535156 295.964844 130.714844 C 294.382812 127.992188 295.304688 124.507812 298.027344 122.921875 L 320.636719 109.769531 C 323.359375 108.183594 326.847656 109.105469 328.429688 111.824219 C 330.011719 114.546875 329.089844 118.035156 326.367188 119.617188 L 303.757812 132.773438 C 302.855469 133.300781 301.871094 133.546875 300.894531 133.546875 " fill-opacity="1" fill-rule="nonzero"/><path fill="#040606" d="M 271.550781 317.039062 C 269.585938 317.039062 267.679688 316.023438 266.617188 314.207031 L 253.460938 291.609375 C 251.875 288.886719 252.800781 285.398438 255.523438 283.8125 C 258.246094 282.226562 261.730469 283.152344 263.316406 285.871094 L 276.472656 308.472656 C 278.058594 311.195312 277.132812 314.679688 274.410156 316.265625 C 273.511719 316.789062 272.523438 317.039062 271.550781 317.039062 " fill-opacity="1" fill-rule="nonzero"/><path fill="#040606" d="M 199.164062 192.746094 C 198.109375 192.746094 197.042969 192.457031 196.089844 191.84375 C 193.441406 190.144531 192.671875 186.621094 194.371094 183.96875 L 245.480469 104.347656 C 247.179688 101.699219 250.707031 100.933594 253.355469 102.628906 C 256.007812 104.332031 256.777344 107.855469 255.078125 110.503906 L 203.96875 190.125 C 202.878906 191.820312 201.039062 192.746094 199.164062 192.746094 " fill-opacity="1" fill-rule="nonzero"/><path fill="#040606" d="M 220.761719 229.691406 C 218.800781 229.691406 216.894531 228.679688 215.832031 226.867188 L 194.246094 189.921875 C 192.660156 187.203125 193.574219 183.714844 196.296875 182.128906 C 199.015625 180.542969 202.503906 181.457031 204.089844 184.175781 L 225.675781 221.117188 C 227.265625 223.835938 226.347656 227.328125 223.628906 228.910156 C 222.726562 229.4375 221.734375 229.691406 220.761719 229.691406 " fill-opacity="1" fill-rule="nonzero"/><g clip-path="url(#7f7d63d349)"><path fill="#040606" d="M 199.507812 362.488281 C 196.355469 362.488281 193.804688 359.941406 193.804688 356.792969 C 193.804688 353.644531 196.355469 351.09375 199.507812 351.09375 C 289.984375 351.09375 363.597656 277.503906 363.597656 187.050781 C 363.597656 96.59375 289.984375 23.003906 199.507812 23.003906 C 196.355469 23.003906 193.804688 20.453125 193.804688 17.304688 C 193.804688 14.160156 196.355469 11.605469 199.507812 11.605469 C 296.273438 11.605469 374.996094 90.3125 374.996094 187.050781 C 374.996094 283.789062 296.273438 362.488281 199.507812 362.488281 " fill-opacity="1" fill-rule="nonzero"/></g></svg>