<svg xmlns="http://www.w3.org/2000/svg" xmlns:xlink="http://www.w3.org/1999/xlink" width="500" zoomAndPan="magnify" viewBox="0 0 375 374.999991" height="500" preserveAspectRatio="xMidYMid meet" version="1.0"><defs><clipPath id="2669f3c855"><path d="M 7.949219 7.949219 L 367.199219 7.949219 L 367.199219 367.199219 L 7.949219 367.199219 Z M 7.949219 7.949219 " clip-rule="nonzero"/></clipPath></defs><g clip-path="url(#2669f3c855)"><path fill="#0e0e52" d="M 151.652344 127.699219 C 151.652344 127.308594 151.613281 126.917969 151.535156 126.53125 C 151.460938 126.148438 151.34375 125.773438 151.195312 125.410156 C 151.042969 125.046875 150.859375 124.699219 150.640625 124.375 C 150.421875 124.046875 150.175781 123.746094 149.898438 123.464844 C 149.621094 123.1875 149.316406 122.941406 148.988281 122.722656 C 148.664062 122.503906 148.316406 122.320312 147.953125 122.167969 C 147.589844 122.019531 147.21875 121.90625 146.832031 121.828125 C 146.445312 121.75 146.054688 121.714844 145.664062 121.714844 L 109.738281 121.714844 C 109.34375 121.714844 108.957031 121.75 108.570312 121.828125 C 108.183594 121.90625 107.808594 122.019531 107.445312 122.167969 C 107.082031 122.320312 106.738281 122.503906 106.410156 122.722656 C 106.085938 122.941406 105.78125 123.1875 105.503906 123.464844 C 105.226562 123.746094 104.976562 124.046875 104.757812 124.375 C 104.539062 124.699219 104.355469 125.046875 104.207031 125.410156 C 104.054688 125.773438 103.941406 126.148438 103.867188 126.53125 C 103.789062 126.917969 103.75 127.308594 103.75 127.699219 L 103.75 163.625 C 103.75 164.019531 103.789062 164.40625 103.867188 164.792969 C 103.941406 165.179688 104.054688 165.554688 104.207031 165.917969 C 104.355469 166.28125 104.539062 166.625 104.757812 166.953125 C 104.976562 167.28125 105.226562 167.582031 105.503906 167.859375 C 105.78125 168.136719 106.085938 168.386719 106.410156 168.605469 C 106.738281 168.824219 107.082031 169.007812 107.445312 169.15625 C 107.808594 169.308594 108.183594 169.421875 108.570312 169.5 C 108.957031 169.574219 109.34375 169.613281 109.738281 169.613281 L 145.664062 169.613281 C 146.054688 169.613281 146.445312 169.574219 146.832031 169.5 C 147.21875 169.421875 147.589844 169.308594 147.953125 169.15625 C 148.316406 169.007812 148.664062 168.824219 148.988281 168.605469 C 149.316406 168.386719 149.621094 168.136719 149.898438 167.859375 C 150.175781 167.582031 150.421875 167.28125 150.640625 166.953125 C 150.859375 166.625 151.042969 166.28125 151.195312 165.917969 C 151.34375 165.554688 151.460938 165.179688 151.535156 164.792969 C 151.613281 164.40625 151.652344 164.019531 151.652344 163.625 Z M 139.675781 157.636719 L 115.726562 157.636719 L 115.726562 133.6875 L 139.675781 133.6875 Z M 169.613281 121.714844 C 169.21875 121.714844 168.832031 121.75 168.445312 121.828125 C 168.058594 121.90625 167.683594 122.019531 167.320312 122.167969 C 166.957031 122.320312 166.613281 122.503906 166.285156 122.722656 C 165.960938 122.941406 165.65625 123.1875 165.378906 123.464844 C 165.101562 123.746094 164.851562 124.046875 164.632812 124.375 C 164.414062 124.699219 164.230469 125.046875 164.082031 125.410156 C 163.929688 125.773438 163.816406 126.148438 163.742188 126.53125 C 163.664062 126.917969 163.625 127.308594 163.625 127.699219 L 163.625 163.625 C 163.625 164.019531 163.664062 164.40625 163.742188 164.792969 C 163.816406 165.179688 163.929688 165.554688 164.082031 165.917969 C 164.230469 166.28125 164.414062 166.625 164.632812 166.953125 C 164.851562 167.28125 165.101562 167.582031 165.378906 167.859375 C 165.65625 168.136719 165.960938 168.386719 166.285156 168.605469 C 166.613281 168.824219 166.957031 169.007812 167.320312 169.15625 C 167.683594 169.308594 168.058594 169.421875 168.445312 169.5 C 168.832031 169.574219 169.21875 169.613281 169.613281 169.613281 L 205.539062 169.613281 C 205.929688 169.613281 206.320312 169.574219 206.707031 169.5 C 207.09375 169.421875 207.464844 169.308594 207.828125 169.15625 C 208.191406 169.007812 208.539062 168.824219 208.863281 168.605469 C 209.191406 168.386719 209.496094 168.136719 209.773438 167.859375 C 210.050781 167.582031 210.296875 167.28125 210.515625 166.953125 C 210.734375 166.625 210.917969 166.28125 211.070312 165.917969 C 211.21875 165.554688 211.335938 165.179688 211.410156 164.792969 C 211.488281 164.40625 211.527344 164.019531 211.527344 163.625 L 211.527344 127.699219 C 211.527344 127.308594 211.488281 126.917969 211.410156 126.53125 C 211.335938 126.148438 211.21875 125.773438 211.070312 125.410156 C 210.917969 125.046875 210.734375 124.699219 210.515625 124.375 C 210.296875 124.046875 210.050781 123.746094 209.773438 123.464844 C 209.496094 123.1875 209.191406 122.941406 208.863281 122.722656 C 208.539062 122.503906 208.191406 122.320312 207.828125 122.167969 C 207.464844 122.019531 207.09375 121.90625 206.707031 121.828125 C 206.320312 121.75 205.929688 121.714844 205.539062 121.714844 Z M 199.550781 157.636719 L 175.601562 157.636719 L 175.601562 133.6875 L 199.550781 133.6875 Z M 91.777344 187.574219 C 91.777344 187.183594 91.738281 186.792969 91.660156 186.40625 C 91.585938 186.023438 91.46875 185.648438 91.320312 185.285156 C 91.167969 184.921875 90.984375 184.574219 90.765625 184.25 C 90.546875 183.921875 90.300781 183.621094 90.023438 183.339844 C 89.746094 183.0625 89.441406 182.816406 89.113281 182.597656 C 88.789062 182.378906 88.441406 182.195312 88.078125 182.042969 C 87.714844 181.894531 87.34375 181.78125 86.957031 181.703125 C 86.570312 181.625 86.179688 181.589844 85.789062 181.589844 L 49.863281 181.589844 C 49.46875 181.589844 49.082031 181.625 48.695312 181.703125 C 48.308594 181.78125 47.933594 181.894531 47.570312 182.042969 C 47.207031 182.195312 46.863281 182.378906 46.535156 182.597656 C 46.210938 182.816406 45.90625 183.0625 45.628906 183.339844 C 45.351562 183.621094 45.101562 183.921875 44.882812 184.25 C 44.664062 184.574219 44.480469 184.921875 44.332031 185.285156 C 44.179688 185.648438 44.066406 186.023438 43.992188 186.40625 C 43.914062 186.792969 43.875 187.183594 43.875 187.574219 L 43.875 223.5 C 43.875 223.894531 43.914062 224.28125 43.992188 224.667969 C 44.066406 225.054688 44.179688 225.429688 44.332031 225.792969 C 44.480469 226.15625 44.664062 226.5 44.882812 226.828125 C 45.101562 227.15625 45.351562 227.457031 45.628906 227.734375 C 45.90625 228.011719 46.210938 228.261719 46.535156 228.480469 C 46.863281 228.699219 47.207031 228.882812 47.570312 229.03125 C 47.933594 229.183594 48.308594 229.296875 48.695312 229.375 C 49.082031 229.449219 49.46875 229.488281 49.863281 229.488281 L 85.789062 229.488281 C 86.179688 229.488281 86.570312 229.449219 86.957031 229.375 C 87.34375 229.296875 87.714844 229.183594 88.078125 229.03125 C 88.441406 228.882812 88.789062 228.699219 89.113281 228.480469 C 89.441406 228.261719 89.746094 228.011719 90.023438 227.734375 C 90.300781 227.457031 90.546875 227.15625 90.765625 226.828125 C 90.984375 226.5 91.167969 226.15625 91.320312 225.792969 C 91.46875 225.429688 91.585938 225.054688 91.660156 224.667969 C 91.738281 224.28125 91.777344 223.894531 91.777344 223.5 Z M 79.800781 217.511719 L 55.851562 217.511719 L 55.851562 193.5625 L 79.800781 193.5625 Z M 151.652344 187.574219 C 151.652344 187.183594 151.613281 186.792969 151.535156 186.40625 C 151.460938 186.023438 151.34375 185.648438 151.195312 185.285156 C 151.042969 184.921875 150.859375 184.574219 150.640625 184.25 C 150.421875 183.921875 150.175781 183.621094 149.898438 183.339844 C 149.621094 183.0625 149.316406 182.816406 148.988281 182.597656 C 148.664062 182.378906 148.316406 182.195312 147.953125 182.042969 C 147.589844 181.894531 147.21875 181.78125 146.832031 181.703125 C 146.445312 181.625 146.054688 181.589844 145.664062 181.589844 L 109.738281 181.589844 C 109.34375 181.589844 108.957031 181.625 108.570312 181.703125 C 108.183594 181.78125 107.808594 181.894531 107.445312 182.042969 C 107.082031 182.195312 106.738281 182.378906 106.410156 182.597656 C 106.085938 182.816406 105.78125 183.0625 105.503906 183.339844 C 105.226562 183.621094 104.976562 183.921875 104.757812 184.25 C 104.539062 184.574219 104.355469 184.921875 104.207031 185.285156 C 104.054688 185.648438 103.941406 186.023438 103.867188 186.40625 C 103.789062 186.792969 103.75 187.183594 103.75 187.574219 L 103.75 223.5 C 103.75 223.894531 103.789062 224.28125 103.867188 224.667969 C 103.941406 225.054688 104.054688 225.429688 104.207031 225.792969 C 104.355469 226.15625 104.539062 226.5 104.757812 226.828125 C 104.976562 227.15625 105.226562 227.457031 105.503906 227.734375 C 105.78125 228.011719 106.085938 228.261719 106.410156 228.480469 C 106.738281 228.699219 107.082031 228.882812 107.445312 229.03125 C 107.808594 229.183594 108.183594 229.296875 108.570312 229.375 C 108.957031 229.449219 109.34375 229.488281 109.738281 229.488281 L 145.664062 229.488281 C 146.054688 229.488281 146.445312 229.449219 146.832031 229.375 C 147.21875 229.296875 147.589844 229.183594 147.953125 229.03125 C 148.316406 228.882812 148.664062 228.699219 148.988281 228.480469 C 149.316406 228.261719 149.621094 228.011719 149.898438 227.734375 C 150.175781 227.457031 150.421875 227.15625 150.640625 226.828125 C 150.859375 226.5 151.042969 226.15625 151.195312 225.792969 C 151.34375 225.429688 151.460938 225.054688 151.535156 224.667969 C 151.613281 224.28125 151.652344 223.894531 151.652344 223.5 Z M 139.675781 217.511719 L 115.726562 217.511719 L 115.726562 193.5625 L 139.675781 193.5625 Z M 85.789062 241.464844 L 49.863281 241.464844 C 49.46875 241.464844 49.082031 241.5 48.695312 241.578125 C 48.308594 241.65625 47.933594 241.769531 47.570312 241.917969 C 47.207031 242.070312 46.863281 242.253906 46.535156 242.472656 C 46.210938 242.691406 45.90625 242.9375 45.628906 243.214844 C 45.351562 243.496094 45.101562 243.796875 44.882812 244.125 C 44.664062 244.449219 44.480469 244.796875 44.332031 245.160156 C 44.179688 245.523438 44.066406 245.898438 43.992188 246.28125 C 43.914062 246.667969 43.875 247.058594 43.875 247.449219 L 43.875 283.375 C 43.875 283.769531 43.914062 284.15625 43.992188 284.542969 C 44.066406 284.929688 44.179688 285.304688 44.332031 285.667969 C 44.480469 286.03125 44.664062 286.375 44.882812 286.703125 C 45.101562 287.03125 45.351562 287.332031 45.628906 287.609375 C 45.90625 287.886719 46.210938 288.136719 46.535156 288.355469 C 46.863281 288.574219 47.207031 288.757812 47.570312 288.90625 C 47.933594 289.058594 48.308594 289.171875 48.695312 289.25 C 49.082031 289.324219 49.46875 289.363281 49.863281 289.363281 L 85.789062 289.363281 C 86.179688 289.363281 86.570312 289.324219 86.957031 289.25 C 87.34375 289.171875 87.714844 289.058594 88.078125 288.90625 C 88.441406 288.757812 88.789062 288.574219 89.113281 288.355469 C 89.441406 288.136719 89.746094 287.886719 90.023438 287.609375 C 90.300781 287.332031 90.546875 287.027344 90.765625 286.703125 C 90.984375 286.375 91.167969 286.03125 91.320312 285.667969 C 91.46875 285.304688 91.585938 284.929688 91.660156 284.542969 C 91.738281 284.15625 91.777344 283.769531 91.777344 283.375 L 91.777344 247.449219 C 91.777344 247.058594 91.738281 246.667969 91.660156 246.28125 C 91.585938 245.898438 91.46875 245.523438 91.320312 245.160156 C 91.167969 244.796875 90.984375 244.449219 90.765625 244.125 C 90.546875 243.796875 90.300781 243.496094 90.023438 243.214844 C 89.746094 242.9375 89.441406 242.691406 89.113281 242.472656 C 88.789062 242.253906 88.441406 242.070312 88.078125 241.917969 C 87.714844 241.769531 87.34375 241.65625 86.957031 241.578125 C 86.570312 241.5 86.179688 241.464844 85.789062 241.464844 Z M 79.800781 277.386719 L 55.851562 277.386719 L 55.851562 253.4375 L 79.800781 253.4375 Z M 145.664062 241.464844 L 109.738281 241.464844 C 109.34375 241.464844 108.957031 241.5 108.570312 241.578125 C 108.183594 241.65625 107.808594 241.769531 107.445312 241.917969 C 107.082031 242.070312 106.738281 242.253906 106.410156 242.472656 C 106.085938 242.691406 105.78125 242.9375 105.503906 243.214844 C 105.226562 243.496094 104.976562 243.796875 104.757812 244.125 C 104.539062 244.449219 104.355469 244.796875 104.207031 245.160156 C 104.054688 245.523438 103.941406 245.898438 103.867188 246.28125 C 103.789062 246.667969 103.75 247.058594 103.75 247.449219 L 103.75 283.375 C 103.75 283.769531 103.789062 284.15625 103.867188 284.542969 C 103.941406 284.929688 104.054688 285.304688 104.207031 285.667969 C 104.355469 286.03125 104.539062 286.375 104.757812 286.703125 C 104.976562 287.027344 105.226562 287.332031 105.503906 287.609375 C 105.78125 287.886719 106.085938 288.136719 106.410156 288.355469 C 106.738281 288.574219 107.082031 288.757812 107.445312 288.90625 C 107.808594 289.058594 108.183594 289.171875 108.570312 289.25 C 108.957031 289.324219 109.34375 289.363281 109.738281 289.363281 L 145.664062 289.363281 C 146.054688 289.363281 146.445312 289.324219 146.832031 289.25 C 147.21875 289.171875 147.589844 289.058594 147.953125 288.90625 C 148.316406 288.757812 148.664062 288.574219 148.988281 288.355469 C 149.316406 288.136719 149.621094 287.886719 149.898438 287.609375 C 150.175781 287.332031 150.421875 287.03125 150.640625 286.703125 C 150.859375 286.375 151.042969 286.03125 151.195312 285.667969 C 151.34375 285.304688 151.460938 284.929688 151.535156 284.542969 C 151.613281 284.15625 151.652344 283.769531 151.652344 283.375 L 151.652344 247.449219 C 151.652344 247.058594 151.613281 246.667969 151.535156 246.28125 C 151.460938 245.898438 151.34375 245.523438 151.195312 245.160156 C 151.042969 244.796875 150.859375 244.449219 150.640625 244.125 C 150.421875 243.796875 150.175781 243.496094 149.898438 243.214844 C 149.621094 242.9375 149.316406 242.691406 148.988281 242.472656 C 148.664062 242.253906 148.316406 242.070312 147.953125 241.917969 C 147.589844 241.769531 147.21875 241.65625 146.832031 241.578125 C 146.445312 241.5 146.054688 241.464844 145.664062 241.464844 Z M 139.675781 277.386719 L 115.726562 277.386719 L 115.726562 253.4375 L 139.675781 253.4375 Z M 265.414062 163.625 C 263.746094 163.625 262.082031 163.667969 260.417969 163.75 C 258.753906 163.828125 257.09375 163.953125 255.4375 164.117188 C 253.777344 164.277344 252.125 164.484375 250.476562 164.726562 C 248.828125 164.972656 247.1875 165.257812 245.554688 165.582031 C 243.921875 165.90625 242.296875 166.269531 240.679688 166.675781 C 239.066406 167.082031 237.460938 167.523438 235.867188 168.007812 C 234.273438 168.492188 232.691406 169.015625 231.121094 169.574219 C 229.554688 170.136719 228 170.734375 226.460938 171.375 C 224.921875 172.011719 223.398438 172.6875 221.894531 173.398438 C 220.386719 174.109375 218.898438 174.859375 217.429688 175.644531 C 215.960938 176.429688 214.511719 177.25 213.082031 178.105469 C 211.65625 178.964844 210.246094 179.855469 208.863281 180.78125 C 207.476562 181.707031 206.117188 182.664062 204.777344 183.65625 C 203.441406 184.648438 202.128906 185.671875 200.839844 186.730469 C 199.550781 187.785156 198.292969 188.875 197.058594 189.992188 C 195.824219 191.113281 194.617188 192.261719 193.4375 193.4375 C 192.261719 194.617188 191.113281 195.824219 189.992188 197.058594 C 188.875 198.292969 187.785156 199.550781 186.730469 200.839844 C 185.671875 202.128906 184.648438 203.441406 183.65625 204.777344 C 182.664062 206.117188 181.707031 207.476562 180.78125 208.863281 C 179.855469 210.246094 178.964844 211.65625 178.105469 213.082031 C 177.25 214.511719 176.429688 215.960938 175.644531 217.429688 C 174.859375 218.898438 174.109375 220.386719 173.398438 221.894531 C 172.6875 223.398438 172.011719 224.921875 171.375 226.460938 C 170.734375 228 170.136719 229.554688 169.574219 231.121094 C 169.015625 232.691406 168.492188 234.273438 168.007812 235.867188 C 167.523438 237.460938 167.082031 239.066406 166.675781 240.679688 C 166.269531 242.296875 165.90625 243.921875 165.582031 245.554688 C 165.257812 247.1875 164.972656 248.828125 164.726562 250.476562 C 164.484375 252.125 164.277344 253.777344 164.117188 255.4375 C 163.953125 257.09375 163.828125 258.753906 163.75 260.417969 C 163.667969 262.082031 163.625 263.746094 163.625 265.414062 C 163.625 267.078125 163.667969 268.742188 163.75 270.40625 C 163.828125 272.070312 163.953125 273.730469 164.117188 275.390625 C 164.277344 277.046875 164.484375 278.699219 164.726562 280.347656 C 164.972656 281.996094 165.257812 283.636719 165.582031 285.269531 C 165.90625 286.90625 166.269531 288.53125 166.675781 290.144531 C 167.082031 291.761719 167.523438 293.367188 168.007812 294.960938 C 168.492188 296.554688 169.015625 298.136719 169.574219 299.703125 C 170.136719 301.273438 170.734375 302.828125 171.375 304.367188 C 172.011719 305.90625 172.6875 307.425781 173.398438 308.933594 C 174.109375 310.4375 174.859375 311.925781 175.644531 313.394531 C 176.429688 314.863281 177.25 316.3125 178.105469 317.742188 C 178.964844 319.171875 179.855469 320.578125 180.78125 321.964844 C 181.707031 323.347656 182.664062 324.710938 183.65625 326.046875 C 184.648438 327.386719 185.671875 328.699219 186.730469 329.988281 C 187.785156 331.273438 188.875 332.535156 189.992188 333.769531 C 191.113281 335.003906 192.261719 336.210938 193.4375 337.386719 C 194.617188 338.566406 195.824219 339.714844 197.058594 340.832031 C 198.292969 341.953125 199.550781 343.039062 200.839844 344.097656 C 202.128906 345.152344 203.441406 346.175781 204.777344 347.167969 C 206.117188 348.160156 207.476562 349.121094 208.863281 350.046875 C 210.246094 350.972656 211.65625 351.863281 213.082031 352.71875 C 214.511719 353.574219 215.960938 354.394531 217.429688 355.179688 C 218.898438 355.96875 220.386719 356.714844 221.894531 357.429688 C 223.398438 358.140625 224.921875 358.816406 226.460938 359.453125 C 228 360.089844 229.554688 360.6875 231.121094 361.25 C 232.691406 361.8125 234.273438 362.335938 235.867188 362.816406 C 237.460938 363.300781 239.066406 363.746094 240.679688 364.148438 C 242.296875 364.554688 243.921875 364.917969 245.554688 365.246094 C 247.1875 365.570312 248.828125 365.855469 250.476562 366.097656 C 252.125 366.34375 253.777344 366.546875 255.4375 366.710938 C 257.09375 366.875 258.753906 366.996094 260.417969 367.078125 C 262.082031 367.160156 263.746094 367.199219 265.414062 367.199219 C 267.078125 367.199219 268.742188 367.160156 270.40625 367.078125 C 272.070312 366.996094 273.730469 366.875 275.390625 366.710938 C 277.046875 366.546875 278.699219 366.34375 280.347656 366.097656 C 281.996094 365.855469 283.636719 365.570312 285.269531 365.246094 C 286.90625 364.917969 288.53125 364.554688 290.144531 364.148438 C 291.761719 363.746094 293.367188 363.300781 294.960938 362.816406 C 296.554688 362.335938 298.136719 361.8125 299.703125 361.25 C 301.273438 360.6875 302.828125 360.089844 304.367188 359.453125 C 305.90625 358.816406 307.425781 358.140625 308.933594 357.429688 C 310.4375 356.714844 311.925781 355.96875 313.394531 355.179688 C 314.863281 354.394531 316.3125 353.574219 317.742188 352.71875 C 319.171875 351.863281 320.578125 350.972656 321.964844 350.046875 C 323.347656 349.121094 324.710938 348.160156 326.046875 347.167969 C 327.386719 346.175781 328.699219 345.152344 329.988281 344.097656 C 331.273438 343.039062 332.535156 341.953125 333.769531 340.832031 C 335.003906 339.714844 336.210938 338.566406 337.386719 337.386719 C 338.566406 336.210938 339.714844 335.003906 340.832031 333.769531 C 341.953125 332.535156 343.039062 331.273438 344.097656 329.988281 C 345.152344 328.699219 346.175781 327.386719 347.167969 326.046875 C 348.160156 324.710938 349.121094 323.347656 350.046875 321.964844 C 350.972656 320.578125 351.863281 319.171875 352.71875 317.742188 C 353.574219 316.3125 354.394531 314.863281 355.179688 313.394531 C 355.96875 311.925781 356.714844 310.4375 357.429688 308.933594 C 358.140625 307.425781 358.816406 305.90625 359.453125 304.367188 C 360.089844 302.828125 360.6875 301.273438 361.25 299.703125 C 361.8125 298.136719 362.335938 296.554688 362.816406 294.960938 C 363.300781 293.367188 363.746094 291.761719 364.148438 290.144531 C 364.554688 288.53125 364.917969 286.90625 365.246094 285.269531 C 365.570312 283.636719 365.855469 281.996094 366.097656 280.347656 C 366.34375 278.699219 366.546875 277.046875 366.710938 275.390625 C 366.875 273.730469 366.996094 272.070312 367.078125 270.40625 C 367.160156 268.742188 367.199219 267.078125 367.199219 265.414062 C 367.199219 263.746094 367.15625 262.082031 367.074219 260.421875 C 366.988281 258.757812 366.863281 257.097656 366.699219 255.441406 C 366.535156 253.78125 366.328125 252.128906 366.085938 250.484375 C 365.839844 248.835938 365.550781 247.195312 365.226562 245.5625 C 364.898438 243.929688 364.535156 242.304688 364.128906 240.691406 C 363.722656 239.074219 363.277344 237.472656 362.792969 235.878906 C 362.308594 234.285156 361.785156 232.703125 361.222656 231.136719 C 360.660156 229.570312 360.058594 228.015625 359.421875 226.476562 C 358.785156 224.941406 358.109375 223.417969 357.394531 221.914062 C 356.683594 220.410156 355.933594 218.921875 355.148438 217.453125 C 354.363281 215.984375 353.542969 214.535156 352.683594 213.109375 C 351.828125 211.679688 350.9375 210.273438 350.011719 208.890625 C 349.085938 207.503906 348.125 206.144531 347.132812 204.808594 C 346.140625 203.46875 345.117188 202.15625 344.0625 200.871094 C 343.003906 199.582031 341.917969 198.324219 340.796875 197.089844 C 339.679688 195.855469 338.53125 194.648438 337.355469 193.472656 C 336.175781 192.292969 334.972656 191.144531 333.738281 190.027344 C 332.503906 188.910156 331.242188 187.820312 329.957031 186.765625 C 328.667969 185.707031 327.355469 184.683594 326.019531 183.691406 C 324.679688 182.699219 323.320312 181.742188 321.9375 180.816406 C 320.550781 179.890625 319.144531 178.996094 317.71875 178.140625 C 316.289062 177.285156 314.839844 176.464844 313.371094 175.679688 C 311.90625 174.890625 310.417969 174.144531 308.914062 173.429688 C 307.40625 172.71875 305.886719 172.042969 304.347656 171.402344 C 302.808594 170.765625 301.257812 170.164062 299.6875 169.605469 C 298.121094 169.042969 296.539062 168.519531 294.949219 168.035156 C 293.355469 167.550781 291.75 167.105469 290.136719 166.699219 C 288.519531 166.292969 286.894531 165.925781 285.261719 165.601562 C 283.628906 165.273438 281.988281 164.988281 280.34375 164.742188 C 278.695312 164.496094 277.042969 164.289062 275.386719 164.125 C 273.730469 163.960938 272.070312 163.835938 270.40625 163.753906 C 268.742188 163.671875 267.078125 163.628906 265.414062 163.625 Z M 265.414062 355.226562 C 263.941406 355.226562 262.472656 355.191406 261.007812 355.117188 C 259.539062 355.046875 258.074219 354.9375 256.609375 354.792969 C 255.148438 354.648438 253.6875 354.46875 252.234375 354.253906 C 250.78125 354.039062 249.332031 353.785156 247.890625 353.5 C 246.449219 353.214844 245.015625 352.890625 243.589844 352.535156 C 242.164062 352.175781 240.75 351.785156 239.34375 351.359375 C 237.933594 350.929688 236.539062 350.46875 235.15625 349.976562 C 233.773438 349.480469 232.402344 348.953125 231.042969 348.390625 C 229.683594 347.828125 228.34375 347.230469 227.011719 346.601562 C 225.683594 345.972656 224.371094 345.3125 223.074219 344.621094 C 221.78125 343.925781 220.5 343.203125 219.238281 342.449219 C 217.980469 341.691406 216.738281 340.90625 215.515625 340.089844 C 214.292969 339.273438 213.09375 338.425781 211.910156 337.550781 C 210.730469 336.675781 209.574219 335.773438 208.4375 334.839844 C 207.300781 333.90625 206.1875 332.945312 205.097656 331.960938 C 204.007812 330.972656 202.945312 329.960938 201.90625 328.921875 C 200.867188 327.878906 199.851562 326.816406 198.867188 325.726562 C 197.878906 324.636719 196.917969 323.527344 195.988281 322.390625 C 195.054688 321.253906 194.152344 320.09375 193.273438 318.914062 C 192.398438 317.734375 191.554688 316.53125 190.738281 315.308594 C 189.921875 314.089844 189.132812 312.847656 188.378906 311.585938 C 187.621094 310.324219 186.898438 309.046875 186.207031 307.75 C 185.511719 306.453125 184.851562 305.140625 184.222656 303.8125 C 183.59375 302.484375 183 301.140625 182.4375 299.78125 C 181.875 298.425781 181.347656 297.054688 180.851562 295.671875 C 180.355469 294.285156 179.894531 292.890625 179.46875 291.484375 C 179.042969 290.078125 178.648438 288.660156 178.292969 287.234375 C 177.933594 285.808594 177.613281 284.375 177.328125 282.933594 C 177.039062 281.492188 176.789062 280.046875 176.574219 278.589844 C 176.355469 277.136719 176.175781 275.679688 176.03125 274.214844 C 175.890625 272.753906 175.78125 271.289062 175.707031 269.820312 C 175.636719 268.351562 175.601562 266.882812 175.601562 265.414062 C 175.601562 263.941406 175.636719 262.472656 175.707031 261.007812 C 175.78125 259.539062 175.890625 258.074219 176.03125 256.609375 C 176.175781 255.148438 176.355469 253.6875 176.574219 252.234375 C 176.789062 250.78125 177.039062 249.332031 177.328125 247.890625 C 177.613281 246.449219 177.933594 245.015625 178.292969 243.589844 C 178.648438 242.164062 179.042969 240.75 179.46875 239.34375 C 179.894531 237.933594 180.355469 236.539062 180.851562 235.15625 C 181.347656 233.773438 181.875 232.402344 182.4375 231.042969 C 183 229.683594 183.59375 228.34375 184.222656 227.011719 C 184.851562 225.683594 185.511719 224.371094 186.207031 223.074219 C 186.898438 221.78125 187.621094 220.5 188.378906 219.238281 C 189.132812 217.980469 189.921875 216.738281 190.738281 215.515625 C 191.554688 214.292969 192.398438 213.09375 193.273438 211.910156 C 194.152344 210.730469 195.054688 209.574219 195.988281 208.4375 C 196.917969 207.300781 197.878906 206.1875 198.867188 205.097656 C 199.851562 204.007812 200.867188 202.945312 201.90625 201.90625 C 202.945312 200.867188 204.007812 199.851562 205.097656 198.867188 C 206.1875 197.878906 207.300781 196.917969 208.4375 195.988281 C 209.574219 195.054688 210.730469 194.152344 211.910156 193.273438 C 213.09375 192.398438 214.292969 191.554688 215.515625 190.738281 C 216.738281 189.921875 217.980469 189.132812 219.238281 188.378906 C 220.5 187.621094 221.78125 186.898438 223.074219 186.207031 C 224.371094 185.511719 225.683594 184.851562 227.011719 184.222656 C 228.34375 183.59375 229.683594 183 231.042969 182.4375 C 232.402344 181.875 233.773438 181.347656 235.15625 180.851562 C 236.539062 180.355469 237.933594 179.894531 239.34375 179.46875 C 240.75 179.042969 242.164062 178.648438 243.589844 178.292969 C 245.015625 177.933594 246.449219 177.613281 247.890625 177.328125 C 249.332031 177.039062 250.78125 176.789062 252.234375 176.574219 C 253.6875 176.355469 255.148438 176.175781 256.609375 176.03125 C 258.074219 175.890625 259.539062 175.78125 261.007812 175.707031 C 262.472656 175.636719 263.941406 175.601562 265.414062 175.601562 C 266.882812 175.601562 268.351562 175.636719 269.820312 175.707031 C 271.289062 175.78125 272.753906 175.890625 274.214844 176.03125 C 275.679688 176.175781 277.136719 176.355469 278.589844 176.574219 C 280.046875 176.789062 281.492188 177.039062 282.933594 177.328125 C 284.375 177.613281 285.808594 177.933594 287.234375 178.292969 C 288.660156 178.648438 290.078125 179.042969 291.484375 179.46875 C 292.890625 179.894531 294.285156 180.355469 295.671875 180.851562 C 297.054688 181.347656 298.425781 181.875 299.78125 182.4375 C 301.140625 183 302.484375 183.59375 303.8125 184.222656 C 305.140625 184.851562 306.453125 185.511719 307.75 186.207031 C 309.046875 186.898438 310.324219 187.621094 311.585938 188.378906 C 312.847656 189.132812 314.089844 189.921875 315.308594 190.738281 C 316.53125 191.554688 317.734375 192.398438 318.914062 193.273438 C 320.09375 194.152344 321.253906 195.054688 322.390625 195.988281 C 323.527344 196.917969 324.636719 197.878906 325.726562 198.867188 C 326.816406 199.851562 327.878906 200.867188 328.921875 201.90625 C 329.960938 202.945312 330.972656 204.007812 331.960938 205.097656 C 332.945312 206.1875 333.90625 207.300781 334.839844 208.4375 C 335.773438 209.574219 336.675781 210.730469 337.550781 211.910156 C 338.425781 213.09375 339.273438 214.292969 340.089844 215.515625 C 340.90625 216.738281 341.691406 217.980469 342.449219 219.238281 C 343.203125 220.5 343.929688 221.78125 344.621094 223.074219 C 345.3125 224.371094 345.972656 225.683594 346.601562 227.011719 C 347.230469 228.34375 347.828125 229.683594 348.390625 231.042969 C 348.953125 232.402344 349.480469 233.773438 349.976562 235.15625 C 350.46875 236.539062 350.929688 237.933594 351.359375 239.34375 C 351.785156 240.75 352.175781 242.164062 352.535156 243.589844 C 352.890625 245.015625 353.214844 246.449219 353.5 247.890625 C 353.785156 249.332031 354.039062 250.78125 354.253906 252.234375 C 354.46875 253.6875 354.648438 255.148438 354.792969 256.609375 C 354.9375 258.074219 355.046875 259.539062 355.117188 261.007812 C 355.191406 262.472656 355.226562 263.941406 355.226562 265.414062 C 355.222656 266.882812 355.1875 268.351562 355.113281 269.820312 C 355.039062 271.285156 354.929688 272.75 354.785156 274.214844 C 354.636719 275.675781 354.457031 277.132812 354.242188 278.585938 C 354.023438 280.039062 353.769531 281.488281 353.484375 282.925781 C 353.195312 284.367188 352.871094 285.800781 352.515625 287.226562 C 352.15625 288.652344 351.761719 290.066406 351.335938 291.472656 C 350.910156 292.878906 350.445312 294.273438 349.949219 295.65625 C 349.453125 297.039062 348.925781 298.410156 348.363281 299.765625 C 347.800781 301.125 347.203125 302.46875 346.574219 303.796875 C 345.945312 305.125 345.285156 306.433594 344.589844 307.730469 C 343.898438 309.027344 343.171875 310.304688 342.417969 311.5625 C 341.660156 312.824219 340.875 314.066406 340.058594 315.285156 C 339.242188 316.507812 338.394531 317.707031 337.519531 318.890625 C 336.644531 320.070312 335.742188 321.226562 334.808594 322.363281 C 333.875 323.5 332.917969 324.609375 331.929688 325.699219 C 330.941406 326.789062 329.929688 327.851562 328.890625 328.890625 C 327.851562 329.929688 326.789062 330.941406 325.699219 331.929688 C 324.609375 332.917969 323.5 333.875 322.363281 334.808594 C 321.226562 335.742188 320.070312 336.644531 318.890625 337.519531 C 317.707031 338.394531 316.507812 339.242188 315.285156 340.058594 C 314.066406 340.875 312.824219 341.660156 311.5625 342.417969 C 310.304688 343.171875 309.027344 343.898438 307.730469 344.589844 C 306.433594 345.285156 305.125 345.945312 303.796875 346.574219 C 302.46875 347.203125 301.125 347.800781 299.765625 348.363281 C 298.410156 348.925781 297.039062 349.453125 295.65625 349.949219 C 294.273438 350.445312 292.878906 350.910156 291.472656 351.335938 C 290.066406 351.761719 288.652344 352.15625 287.226562 352.515625 C 285.800781 352.871094 284.367188 353.195312 282.925781 353.484375 C 281.488281 353.769531 280.039062 354.023438 278.585938 354.242188 C 277.132812 354.457031 275.675781 354.636719 274.214844 354.785156 C 272.75 354.929688 271.285156 355.039062 269.820312 355.113281 C 268.351562 355.1875 266.882812 355.222656 265.414062 355.226562 Z M 157.636719 313.3125 L 37.886719 313.3125 C 37.300781 313.3125 36.714844 313.28125 36.128906 313.226562 C 35.542969 313.167969 34.960938 313.078125 34.386719 312.964844 C 33.808594 312.847656 33.238281 312.707031 32.675781 312.535156 C 32.113281 312.363281 31.558594 312.164062 31.015625 311.941406 C 30.472656 311.714844 29.941406 311.464844 29.425781 311.1875 C 28.90625 310.910156 28.402344 310.605469 27.914062 310.28125 C 27.425781 309.953125 26.953125 309.601562 26.5 309.230469 C 26.042969 308.855469 25.609375 308.460938 25.191406 308.046875 C 24.777344 307.628906 24.382812 307.195312 24.007812 306.742188 C 23.636719 306.285156 23.285156 305.8125 22.957031 305.324219 C 22.632812 304.835938 22.328125 304.332031 22.050781 303.8125 C 21.773438 303.296875 21.523438 302.765625 21.296875 302.222656 C 21.074219 301.679688 20.875 301.125 20.703125 300.5625 C 20.53125 300 20.390625 299.429688 20.273438 298.851562 C 20.160156 298.277344 20.070312 297.695312 20.015625 297.109375 C 19.957031 296.523438 19.925781 295.9375 19.925781 295.351562 L 19.925781 97.761719 L 295.351562 97.761719 L 295.351562 151.652344 C 295.351562 152.042969 295.390625 152.433594 295.464844 152.820312 C 295.542969 153.203125 295.65625 153.578125 295.804688 153.941406 C 295.957031 154.304688 296.140625 154.648438 296.359375 154.976562 C 296.578125 155.304688 296.828125 155.605469 297.105469 155.882812 C 297.382812 156.164062 297.683594 156.410156 298.011719 156.628906 C 298.339844 156.847656 298.683594 157.03125 299.046875 157.183594 C 299.410156 157.332031 299.785156 157.445312 300.167969 157.523438 C 300.554688 157.601562 300.945312 157.636719 301.339844 157.636719 C 301.730469 157.636719 302.121094 157.601562 302.507812 157.523438 C 302.890625 157.445312 303.265625 157.332031 303.628906 157.183594 C 303.992188 157.03125 304.335938 156.847656 304.664062 156.628906 C 304.992188 156.410156 305.292969 156.164062 305.570312 155.882812 C 305.851562 155.605469 306.097656 155.304688 306.316406 154.976562 C 306.535156 154.648438 306.71875 154.304688 306.871094 153.941406 C 307.019531 153.578125 307.132812 153.203125 307.210938 152.820312 C 307.289062 152.433594 307.324219 152.042969 307.324219 151.652344 L 307.324219 67.824219 C 307.324219 66.84375 307.273438 65.867188 307.179688 64.890625 C 307.082031 63.917969 306.9375 62.949219 306.746094 61.988281 C 306.550781 61.027344 306.3125 60.078125 306.027344 59.140625 C 305.742188 58.203125 305.414062 57.28125 305.039062 56.375 C 304.660156 55.46875 304.242188 54.585938 303.78125 53.71875 C 303.316406 52.855469 302.8125 52.015625 302.269531 51.203125 C 301.726562 50.386719 301.140625 49.601562 300.519531 48.84375 C 299.898438 48.085938 299.238281 47.359375 298.546875 46.667969 C 297.855469 45.972656 297.128906 45.316406 296.371094 44.695312 C 295.613281 44.074219 294.828125 43.488281 294.011719 42.945312 C 293.199219 42.398438 292.359375 41.894531 291.492188 41.433594 C 290.628906 40.972656 289.746094 40.550781 288.839844 40.175781 C 287.933594 39.800781 287.011719 39.46875 286.074219 39.183594 C 285.136719 38.898438 284.1875 38.660156 283.226562 38.46875 C 282.265625 38.277344 281.296875 38.132812 280.320312 38.035156 C 279.347656 37.9375 278.367188 37.890625 277.386719 37.886719 L 259.425781 37.886719 L 259.425781 25.914062 C 259.425781 25.324219 259.398438 24.738281 259.339844 24.152344 C 259.28125 23.566406 259.195312 22.984375 259.082031 22.410156 C 258.964844 21.832031 258.824219 21.261719 258.652344 20.699219 C 258.480469 20.136719 258.285156 19.582031 258.058594 19.039062 C 257.832031 18.496094 257.582031 17.964844 257.304688 17.445312 C 257.027344 16.925781 256.726562 16.421875 256.398438 15.933594 C 256.070312 15.445312 255.722656 14.972656 255.347656 14.519531 C 254.976562 14.0625 254.582031 13.628906 254.164062 13.210938 C 253.75 12.796875 253.3125 12.402344 252.859375 12.027344 C 252.402344 11.65625 251.933594 11.304688 251.441406 10.976562 C 250.953125 10.652344 250.449219 10.347656 249.929688 10.070312 C 249.410156 9.792969 248.878906 9.542969 248.335938 9.316406 C 247.792969 9.09375 247.242188 8.894531 246.675781 8.722656 C 246.113281 8.554688 245.542969 8.410156 244.96875 8.296875 C 244.390625 8.179688 243.808594 8.09375 243.222656 8.035156 C 242.636719 7.980469 242.050781 7.949219 241.464844 7.949219 C 240.875 7.949219 240.289062 7.980469 239.703125 8.035156 C 239.117188 8.09375 238.535156 8.179688 237.957031 8.296875 C 237.382812 8.410156 236.8125 8.554688 236.25 8.722656 C 235.6875 8.894531 235.132812 9.09375 234.589844 9.316406 C 234.046875 9.542969 233.515625 9.792969 232.996094 10.070312 C 232.476562 10.347656 231.972656 10.652344 231.484375 10.976562 C 230.996094 11.304688 230.523438 11.65625 230.066406 12.027344 C 229.613281 12.402344 229.175781 12.796875 228.761719 13.210938 C 228.34375 13.628906 227.949219 14.0625 227.578125 14.519531 C 227.203125 14.972656 226.855469 15.445312 226.527344 15.933594 C 226.199219 16.421875 225.898438 16.925781 225.621094 17.445312 C 225.34375 17.964844 225.09375 18.496094 224.867188 19.039062 C 224.644531 19.582031 224.445312 20.136719 224.273438 20.699219 C 224.101562 21.261719 223.960938 21.832031 223.84375 22.410156 C 223.730469 22.984375 223.644531 23.566406 223.585938 24.152344 C 223.53125 24.738281 223.5 25.324219 223.5 25.914062 L 223.5 37.886719 L 175.601562 37.886719 L 175.601562 25.914062 C 175.601562 25.324219 175.570312 24.738281 175.515625 24.152344 C 175.457031 23.566406 175.371094 22.984375 175.253906 22.410156 C 175.140625 21.832031 174.996094 21.261719 174.828125 20.699219 C 174.65625 20.136719 174.457031 19.582031 174.234375 19.039062 C 174.007812 18.496094 173.757812 17.964844 173.480469 17.445312 C 173.203125 16.925781 172.898438 16.421875 172.574219 15.933594 C 172.246094 15.445312 171.894531 14.972656 171.523438 14.519531 C 171.148438 14.0625 170.753906 13.628906 170.339844 13.210938 C 169.921875 12.796875 169.488281 12.402344 169.035156 12.027344 C 168.578125 11.65625 168.105469 11.304688 167.617188 10.976562 C 167.128906 10.652344 166.625 10.347656 166.105469 10.070312 C 165.585938 9.792969 165.054688 9.542969 164.511719 9.316406 C 163.96875 9.09375 163.414062 8.894531 162.851562 8.722656 C 162.289062 8.554688 161.71875 8.410156 161.140625 8.296875 C 160.566406 8.179688 159.984375 8.09375 159.398438 8.035156 C 158.8125 7.980469 158.226562 7.949219 157.636719 7.949219 C 157.050781 7.949219 156.464844 7.980469 155.878906 8.035156 C 155.292969 8.09375 154.710938 8.179688 154.132812 8.296875 C 153.558594 8.410156 152.988281 8.554688 152.421875 8.722656 C 151.859375 8.894531 151.308594 9.09375 150.765625 9.316406 C 150.21875 9.542969 149.6875 9.792969 149.171875 10.070312 C 148.652344 10.347656 148.148438 10.652344 147.660156 10.976562 C 147.167969 11.304688 146.699219 11.65625 146.242188 12.027344 C 145.789062 12.402344 145.351562 12.796875 144.9375 13.210938 C 144.519531 13.628906 144.125 14.0625 143.753906 14.519531 C 143.378906 14.972656 143.03125 15.445312 142.703125 15.933594 C 142.375 16.421875 142.074219 16.925781 141.796875 17.445312 C 141.519531 17.964844 141.269531 18.496094 141.042969 19.039062 C 140.816406 19.582031 140.621094 20.136719 140.449219 20.699219 C 140.277344 21.261719 140.136719 21.832031 140.019531 22.410156 C 139.90625 22.984375 139.820312 23.566406 139.761719 24.152344 C 139.703125 24.738281 139.675781 25.324219 139.675781 25.914062 L 139.675781 37.886719 L 91.777344 37.886719 L 91.777344 25.914062 C 91.777344 25.324219 91.746094 24.738281 91.6875 24.152344 C 91.632812 23.566406 91.546875 22.984375 91.429688 22.410156 C 91.316406 21.832031 91.171875 21.261719 91.003906 20.699219 C 90.832031 20.136719 90.632812 19.582031 90.410156 19.039062 C 90.183594 18.496094 89.933594 17.964844 89.65625 17.445312 C 89.378906 16.925781 89.074219 16.421875 88.75 15.933594 C 88.421875 15.445312 88.070312 14.972656 87.699219 14.519531 C 87.324219 14.0625 86.929688 13.628906 86.515625 13.210938 C 86.097656 12.796875 85.664062 12.402344 85.207031 12.027344 C 84.753906 11.65625 84.28125 11.304688 83.792969 10.976562 C 83.304688 10.652344 82.800781 10.347656 82.28125 10.070312 C 81.761719 9.792969 81.230469 9.542969 80.6875 9.316406 C 80.144531 9.09375 79.589844 8.894531 79.027344 8.722656 C 78.464844 8.554688 77.894531 8.410156 77.316406 8.296875 C 76.742188 8.179688 76.160156 8.09375 75.574219 8.035156 C 74.988281 7.980469 74.402344 7.949219 73.8125 7.949219 C 73.226562 7.949219 72.636719 7.980469 72.050781 8.035156 C 71.46875 8.09375 70.886719 8.179688 70.308594 8.296875 C 69.730469 8.410156 69.160156 8.554688 68.597656 8.722656 C 68.035156 8.894531 67.484375 9.09375 66.9375 9.316406 C 66.394531 9.542969 65.863281 9.792969 65.34375 10.070312 C 64.828125 10.347656 64.324219 10.652344 63.832031 10.976562 C 63.34375 11.304688 62.871094 11.65625 62.417969 12.027344 C 61.964844 12.402344 61.527344 12.796875 61.113281 13.210938 C 60.695312 13.628906 60.300781 14.0625 59.929688 14.519531 C 59.554688 14.972656 59.203125 15.445312 58.878906 15.933594 C 58.550781 16.421875 58.25 16.925781 57.972656 17.445312 C 57.695312 17.964844 57.441406 18.496094 57.21875 19.039062 C 56.992188 19.582031 56.792969 20.136719 56.625 20.699219 C 56.453125 21.261719 56.308594 21.832031 56.195312 22.410156 C 56.082031 22.984375 55.996094 23.566406 55.9375 24.152344 C 55.878906 24.738281 55.851562 25.324219 55.851562 25.914062 L 55.851562 37.886719 L 37.886719 37.886719 C 36.90625 37.890625 35.929688 37.9375 34.953125 38.035156 C 33.980469 38.132812 33.011719 38.277344 32.050781 38.46875 C 31.089844 38.660156 30.140625 38.898438 29.203125 39.183594 C 28.265625 39.46875 27.34375 39.800781 26.4375 40.175781 C 25.53125 40.550781 24.648438 40.972656 23.78125 41.433594 C 22.917969 41.894531 22.078125 42.398438 21.265625 42.945312 C 20.449219 43.488281 19.664062 44.074219 18.90625 44.695312 C 18.148438 45.316406 17.421875 45.972656 16.730469 46.667969 C 16.035156 47.359375 15.378906 48.085938 14.757812 48.84375 C 14.136719 49.601562 13.550781 50.386719 13.007812 51.203125 C 12.460938 52.015625 11.957031 52.855469 11.496094 53.71875 C 11.035156 54.585938 10.613281 55.46875 10.238281 56.375 C 9.863281 57.28125 9.53125 58.203125 9.246094 59.140625 C 8.960938 60.078125 8.722656 61.027344 8.53125 61.988281 C 8.339844 62.949219 8.195312 63.917969 8.097656 64.890625 C 8 65.867188 7.953125 66.84375 7.949219 67.824219 L 7.949219 295.351562 C 7.953125 296.332031 8 297.308594 8.097656 298.285156 C 8.195312 299.257812 8.339844 300.226562 8.53125 301.1875 C 8.722656 302.148438 8.960938 303.097656 9.246094 304.035156 C 9.53125 304.976562 9.863281 305.894531 10.238281 306.800781 C 10.613281 307.707031 11.035156 308.59375 11.496094 309.457031 C 11.957031 310.320312 12.460938 311.160156 13.007812 311.976562 C 13.550781 312.789062 14.136719 313.574219 14.757812 314.332031 C 15.378906 315.089844 16.035156 315.816406 16.730469 316.507812 C 17.421875 317.203125 18.148438 317.859375 18.90625 318.480469 C 19.664062 319.105469 20.449219 319.6875 21.265625 320.230469 C 22.078125 320.777344 22.917969 321.28125 23.78125 321.742188 C 24.648438 322.207031 25.53125 322.625 26.4375 323 C 27.34375 323.375 28.265625 323.707031 29.203125 323.992188 C 30.140625 324.277344 31.089844 324.515625 32.050781 324.707031 C 33.011719 324.898438 33.980469 325.042969 34.953125 325.140625 C 35.929688 325.238281 36.90625 325.285156 37.886719 325.289062 L 157.636719 325.289062 C 158.03125 325.289062 158.421875 325.25 158.804688 325.171875 C 159.191406 325.097656 159.566406 324.984375 159.929688 324.832031 C 160.292969 324.683594 160.636719 324.496094 160.964844 324.277344 C 161.292969 324.058594 161.59375 323.8125 161.871094 323.535156 C 162.148438 323.257812 162.398438 322.953125 162.617188 322.628906 C 162.835938 322.300781 163.019531 321.953125 163.167969 321.59375 C 163.320312 321.230469 163.433594 320.855469 163.511719 320.46875 C 163.585938 320.082031 163.625 319.695312 163.625 319.300781 C 163.625 318.90625 163.585938 318.519531 163.511719 318.132812 C 163.433594 317.746094 163.320312 317.371094 163.167969 317.007812 C 163.019531 316.644531 162.835938 316.300781 162.617188 315.972656 C 162.398438 315.648438 162.148438 315.34375 161.871094 315.066406 C 161.59375 314.789062 161.292969 314.539062 160.964844 314.320312 C 160.636719 314.105469 160.292969 313.917969 159.929688 313.769531 C 159.566406 313.617188 159.191406 313.503906 158.804688 313.429688 C 158.421875 313.351562 158.03125 313.3125 157.636719 313.3125 Z M 235.476562 25.914062 C 235.476562 25.519531 235.515625 25.128906 235.589844 24.746094 C 235.667969 24.359375 235.78125 23.984375 235.929688 23.621094 C 236.082031 23.257812 236.265625 22.914062 236.484375 22.585938 C 236.703125 22.257812 236.953125 21.957031 237.230469 21.679688 C 237.507812 21.402344 237.808594 21.152344 238.136719 20.933594 C 238.464844 20.714844 238.808594 20.53125 239.171875 20.382812 C 239.535156 20.230469 239.910156 20.117188 240.296875 20.039062 C 240.679688 19.964844 241.070312 19.925781 241.464844 19.925781 C 241.855469 19.925781 242.246094 19.964844 242.632812 20.039062 C 243.015625 20.117188 243.390625 20.230469 243.753906 20.382812 C 244.117188 20.53125 244.460938 20.714844 244.789062 20.933594 C 245.117188 21.152344 245.417969 21.402344 245.695312 21.679688 C 245.976562 21.957031 246.222656 22.257812 246.441406 22.585938 C 246.660156 22.914062 246.84375 23.257812 246.996094 23.621094 C 247.144531 23.984375 247.257812 24.359375 247.335938 24.746094 C 247.414062 25.128906 247.449219 25.519531 247.449219 25.914062 L 247.449219 55.851562 C 247.449219 56.242188 247.414062 56.632812 247.335938 57.019531 C 247.257812 57.402344 247.144531 57.777344 246.996094 58.140625 C 246.84375 58.503906 246.660156 58.851562 246.441406 59.175781 C 246.222656 59.503906 245.976562 59.804688 245.695312 60.085938 C 245.417969 60.363281 245.117188 60.609375 244.789062 60.828125 C 244.460938 61.046875 244.117188 61.230469 243.753906 61.382812 C 243.390625 61.53125 243.015625 61.644531 242.632812 61.722656 C 242.246094 61.800781 241.855469 61.839844 241.464844 61.839844 C 241.070312 61.839844 240.679688 61.800781 240.296875 61.722656 C 239.910156 61.644531 239.535156 61.53125 239.171875 61.382812 C 238.808594 61.230469 238.464844 61.046875 238.136719 60.828125 C 237.808594 60.609375 237.507812 60.363281 237.230469 60.085938 C 236.953125 59.804688 236.703125 59.503906 236.484375 59.175781 C 236.265625 58.851562 236.082031 58.503906 235.929688 58.140625 C 235.78125 57.777344 235.667969 57.402344 235.589844 57.019531 C 235.515625 56.632812 235.476562 56.242188 235.476562 55.851562 Z M 151.652344 25.914062 C 151.652344 25.519531 151.6875 25.128906 151.765625 24.746094 C 151.84375 24.359375 151.957031 23.984375 152.105469 23.621094 C 152.257812 23.257812 152.441406 22.914062 152.660156 22.585938 C 152.878906 22.257812 153.125 21.957031 153.402344 21.679688 C 153.683594 21.402344 153.984375 21.152344 154.3125 20.933594 C 154.636719 20.714844 154.984375 20.53125 155.347656 20.382812 C 155.710938 20.230469 156.085938 20.117188 156.46875 20.039062 C 156.855469 19.964844 157.246094 19.925781 157.636719 19.925781 C 158.03125 19.925781 158.421875 19.964844 158.804688 20.039062 C 159.191406 20.117188 159.566406 20.230469 159.929688 20.382812 C 160.292969 20.53125 160.636719 20.714844 160.964844 20.933594 C 161.292969 21.152344 161.59375 21.402344 161.871094 21.679688 C 162.148438 21.957031 162.398438 22.257812 162.617188 22.585938 C 162.835938 22.914062 163.019531 23.257812 163.167969 23.621094 C 163.320312 23.984375 163.433594 24.359375 163.511719 24.746094 C 163.585938 25.128906 163.625 25.519531 163.625 25.914062 L 163.625 55.851562 C 163.625 56.242188 163.585938 56.632812 163.511719 57.019531 C 163.433594 57.402344 163.320312 57.777344 163.167969 58.140625 C 163.019531 58.503906 162.835938 58.851562 162.617188 59.175781 C 162.398438 59.503906 162.148438 59.804688 161.871094 60.085938 C 161.59375 60.363281 161.292969 60.609375 160.964844 60.828125 C 160.636719 61.046875 160.292969 61.230469 159.929688 61.382812 C 159.566406 61.53125 159.191406 61.644531 158.804688 61.722656 C 158.421875 61.800781 158.03125 61.839844 157.636719 61.839844 C 157.246094 61.839844 156.855469 61.800781 156.46875 61.722656 C 156.085938 61.644531 155.710938 61.53125 155.347656 61.382812 C 154.984375 61.230469 154.636719 61.046875 154.3125 60.828125 C 153.984375 60.609375 153.683594 60.363281 153.402344 60.085938 C 153.125 59.804688 152.878906 59.503906 152.660156 59.175781 C 152.441406 58.851562 152.257812 58.503906 152.105469 58.140625 C 151.957031 57.777344 151.84375 57.402344 151.765625 57.019531 C 151.6875 56.632812 151.652344 56.242188 151.652344 55.851562 Z M 67.824219 25.914062 C 67.824219 25.519531 67.863281 25.128906 67.941406 24.746094 C 68.015625 24.359375 68.132812 23.984375 68.28125 23.621094 C 68.433594 23.257812 68.617188 22.914062 68.835938 22.585938 C 69.054688 22.257812 69.300781 21.957031 69.578125 21.679688 C 69.855469 21.402344 70.160156 21.152344 70.488281 20.933594 C 70.8125 20.714844 71.160156 20.53125 71.523438 20.382812 C 71.886719 20.230469 72.257812 20.117188 72.644531 20.039062 C 73.03125 19.964844 73.417969 19.925781 73.8125 19.925781 C 74.207031 19.925781 74.59375 19.964844 74.980469 20.039062 C 75.367188 20.117188 75.742188 20.230469 76.105469 20.382812 C 76.46875 20.53125 76.8125 20.714844 77.140625 20.933594 C 77.464844 21.152344 77.769531 21.402344 78.046875 21.679688 C 78.324219 21.957031 78.574219 22.257812 78.792969 22.585938 C 79.011719 22.914062 79.195312 23.257812 79.34375 23.621094 C 79.496094 23.984375 79.609375 24.359375 79.683594 24.746094 C 79.761719 25.128906 79.800781 25.519531 79.800781 25.914062 L 79.800781 55.851562 C 79.800781 56.242188 79.761719 56.632812 79.683594 57.019531 C 79.609375 57.402344 79.496094 57.777344 79.34375 58.140625 C 79.195312 58.503906 79.011719 58.851562 78.792969 59.175781 C 78.574219 59.503906 78.324219 59.804688 78.046875 60.085938 C 77.769531 60.363281 77.464844 60.609375 77.140625 60.828125 C 76.8125 61.046875 76.46875 61.230469 76.105469 61.382812 C 75.742188 61.53125 75.367188 61.644531 74.980469 61.722656 C 74.59375 61.800781 74.207031 61.839844 73.8125 61.839844 C 73.417969 61.839844 73.03125 61.800781 72.644531 61.722656 C 72.257812 61.644531 71.886719 61.53125 71.523438 61.382812 C 71.160156 61.230469 70.8125 61.046875 70.488281 60.828125 C 70.160156 60.609375 69.855469 60.363281 69.578125 60.085938 C 69.300781 59.804688 69.054688 59.503906 68.835938 59.175781 C 68.617188 58.851562 68.433594 58.503906 68.28125 58.140625 C 68.132812 57.777344 68.015625 57.402344 67.941406 57.019531 C 67.863281 56.632812 67.824219 56.242188 67.824219 55.851562 Z M 37.886719 49.863281 L 55.851562 49.863281 L 55.851562 55.851562 C 55.851562 56.4375 55.878906 57.027344 55.9375 57.609375 C 55.996094 58.195312 56.082031 58.777344 56.195312 59.355469 C 56.308594 59.933594 56.453125 60.5 56.625 61.066406 C 56.792969 61.628906 56.992188 62.179688 57.21875 62.722656 C 57.441406 63.269531 57.695312 63.800781 57.972656 64.316406 C 58.25 64.835938 58.550781 65.339844 58.878906 65.828125 C 59.203125 66.320312 59.554688 66.792969 59.929688 67.246094 C 60.300781 67.699219 60.695312 68.136719 61.113281 68.550781 C 61.527344 68.96875 61.964844 69.363281 62.417969 69.734375 C 62.871094 70.109375 63.34375 70.457031 63.832031 70.785156 C 64.324219 71.113281 64.828125 71.414062 65.34375 71.691406 C 65.863281 71.96875 66.394531 72.21875 66.9375 72.445312 C 67.484375 72.671875 68.035156 72.867188 68.597656 73.039062 C 69.160156 73.210938 69.730469 73.351562 70.308594 73.46875 C 70.886719 73.582031 71.46875 73.667969 72.050781 73.726562 C 72.636719 73.785156 73.226562 73.8125 73.8125 73.8125 C 74.402344 73.8125 74.988281 73.785156 75.574219 73.726562 C 76.160156 73.667969 76.742188 73.582031 77.316406 73.46875 C 77.894531 73.351562 78.464844 73.210938 79.027344 73.039062 C 79.589844 72.867188 80.144531 72.671875 80.6875 72.445312 C 81.230469 72.21875 81.761719 71.96875 82.28125 71.691406 C 82.800781 71.414062 83.304688 71.113281 83.792969 70.785156 C 84.28125 70.457031 84.753906 70.109375 85.207031 69.734375 C 85.664062 69.363281 86.097656 68.96875 86.515625 68.550781 C 86.929688 68.136719 87.324219 67.699219 87.699219 67.246094 C 88.070312 66.792969 88.421875 66.320312 88.75 65.828125 C 89.074219 65.339844 89.378906 64.835938 89.65625 64.316406 C 89.933594 63.800781 90.183594 63.269531 90.410156 62.722656 C 90.632812 62.179688 90.832031 61.628906 91.003906 61.066406 C 91.171875 60.5 91.316406 59.933594 91.429688 59.355469 C 91.546875 58.777344 91.632812 58.195312 91.6875 57.609375 C 91.746094 57.027344 91.777344 56.4375 91.777344 55.851562 L 91.777344 49.863281 L 139.675781 49.863281 L 139.675781 55.851562 C 139.675781 56.4375 139.703125 57.027344 139.761719 57.609375 C 139.820312 58.195312 139.90625 58.777344 140.019531 59.355469 C 140.136719 59.933594 140.277344 60.5 140.449219 61.066406 C 140.621094 61.628906 140.816406 62.179688 141.042969 62.722656 C 141.269531 63.269531 141.519531 63.800781 141.796875 64.316406 C 142.074219 64.835938 142.375 65.339844 142.703125 65.828125 C 143.03125 66.320312 143.378906 66.792969 143.753906 67.246094 C 144.125 67.699219 144.519531 68.136719 144.9375 68.550781 C 145.351562 68.96875 145.789062 69.363281 146.242188 69.734375 C 146.699219 70.109375 147.167969 70.457031 147.660156 70.785156 C 148.148438 71.113281 148.652344 71.414062 149.171875 71.691406 C 149.6875 71.96875 150.21875 72.21875 150.765625 72.445312 C 151.308594 72.671875 151.859375 72.867188 152.421875 73.039062 C 152.988281 73.210938 153.558594 73.351562 154.132812 73.46875 C 154.710938 73.582031 155.292969 73.667969 155.878906 73.726562 C 156.464844 73.785156 157.050781 73.8125 157.636719 73.8125 C 158.226562 73.8125 158.8125 73.785156 159.398438 73.726562 C 159.984375 73.667969 160.566406 73.582031 161.140625 73.46875 C 161.71875 73.351562 162.289062 73.210938 162.851562 73.039062 C 163.414062 72.867188 163.96875 72.671875 164.511719 72.445312 C 165.054688 72.21875 165.585938 71.96875 166.105469 71.691406 C 166.625 71.414062 167.128906 71.113281 167.617188 70.785156 C 168.105469 70.457031 168.578125 70.109375 169.035156 69.734375 C 169.488281 69.363281 169.921875 68.96875 170.339844 68.550781 C 170.753906 68.136719 171.148438 67.699219 171.523438 67.246094 C 171.894531 66.792969 172.246094 66.320312 172.574219 65.828125 C 172.898438 65.339844 173.203125 64.835938 173.480469 64.316406 C 173.757812 63.800781 174.007812 63.269531 174.234375 62.722656 C 174.457031 62.179688 174.65625 61.628906 174.828125 61.066406 C 174.996094 60.5 175.140625 59.933594 175.253906 59.355469 C 175.371094 58.777344 175.457031 58.195312 175.515625 57.609375 C 175.570312 57.027344 175.601562 56.4375 175.601562 55.851562 L 175.601562 49.863281 L 223.5 49.863281 L 223.5 55.851562 C 223.5 56.4375 223.53125 57.027344 223.585938 57.609375 C 223.644531 58.195312 223.730469 58.777344 223.84375 59.355469 C 223.960938 59.933594 224.101562 60.5 224.273438 61.066406 C 224.445312 61.628906 224.644531 62.179688 224.867188 62.722656 C 225.09375 63.269531 225.34375 63.800781 225.621094 64.316406 C 225.898438 64.835938 226.199219 65.339844 226.527344 65.828125 C 226.855469 66.320312 227.203125 66.792969 227.578125 67.246094 C 227.949219 67.699219 228.34375 68.136719 228.761719 68.550781 C 229.175781 68.96875 229.613281 69.363281 230.066406 69.734375 C 230.523438 70.109375 230.996094 70.457031 231.484375 70.785156 C 231.972656 71.113281 232.476562 71.414062 232.996094 71.691406 C 233.515625 71.96875 234.046875 72.21875 234.589844 72.445312 C 235.132812 72.671875 235.6875 72.867188 236.25 73.039062 C 236.8125 73.210938 237.382812 73.351562 237.957031 73.46875 C 238.535156 73.582031 239.117188 73.667969 239.703125 73.726562 C 240.289062 73.785156 240.875 73.8125 241.464844 73.8125 C 242.050781 73.8125 242.636719 73.785156 243.222656 73.726562 C 243.808594 73.667969 244.390625 73.582031 244.96875 73.46875 C 245.542969 73.351562 246.113281 73.210938 246.675781 73.039062 C 247.242188 72.867188 247.792969 72.671875 248.335938 72.445312 C 248.878906 72.21875 249.410156 71.96875 249.929688 71.691406 C 250.449219 71.414062 250.953125 71.113281 251.441406 70.785156 C 251.933594 70.457031 252.402344 70.109375 252.859375 69.734375 C 253.3125 69.363281 253.75 68.96875 254.164062 68.550781 C 254.582031 68.136719 254.976562 67.699219 255.347656 67.246094 C 255.722656 66.792969 256.070312 66.320312 256.398438 65.828125 C 256.726562 65.339844 257.027344 64.835938 257.304688 64.316406 C 257.582031 63.800781 257.832031 63.269531 258.058594 62.722656 C 258.285156 62.179688 258.480469 61.628906 258.652344 61.066406 C 258.824219 60.5 258.964844 59.933594 259.082031 59.355469 C 259.195312 58.777344 259.28125 58.195312 259.339844 57.609375 C 259.398438 57.027344 259.425781 56.4375 259.425781 55.851562 L 259.425781 49.863281 L 277.386719 49.863281 C 277.976562 49.863281 278.5625 49.894531 279.148438 49.953125 C 279.734375 50.007812 280.3125 50.097656 280.890625 50.210938 C 281.46875 50.328125 282.039062 50.46875 282.601562 50.640625 C 283.164062 50.8125 283.714844 51.011719 284.257812 51.234375 C 284.800781 51.460938 285.332031 51.710938 285.851562 51.988281 C 286.371094 52.265625 286.875 52.570312 287.363281 52.894531 C 287.851562 53.222656 288.324219 53.574219 288.777344 53.945312 C 289.234375 54.320312 289.667969 54.714844 290.082031 55.128906 C 290.5 55.546875 290.894531 55.980469 291.265625 56.433594 C 291.640625 56.890625 291.992188 57.363281 292.316406 57.851562 C 292.644531 58.339844 292.945312 58.84375 293.222656 59.363281 C 293.5 59.878906 293.753906 60.410156 293.976562 60.953125 C 294.203125 61.496094 294.402344 62.050781 294.574219 62.613281 C 294.742188 63.175781 294.886719 63.746094 295.003906 64.324219 C 295.117188 64.898438 295.203125 65.480469 295.261719 66.066406 C 295.320312 66.652344 295.351562 67.238281 295.351562 67.824219 L 295.351562 85.789062 L 19.925781 85.789062 L 19.925781 67.824219 C 19.925781 67.238281 19.957031 66.652344 20.015625 66.066406 C 20.070312 65.480469 20.160156 64.898438 20.273438 64.324219 C 20.390625 63.746094 20.53125 63.175781 20.703125 62.613281 C 20.875 62.050781 21.074219 61.496094 21.296875 60.953125 C 21.523438 60.410156 21.773438 59.878906 22.050781 59.363281 C 22.328125 58.84375 22.632812 58.339844 22.957031 57.851562 C 23.285156 57.363281 23.636719 56.890625 24.007812 56.433594 C 24.382812 55.980469 24.777344 55.546875 25.191406 55.128906 C 25.609375 54.714844 26.042969 54.320312 26.5 53.945312 C 26.953125 53.574219 27.425781 53.222656 27.914062 52.894531 C 28.402344 52.570312 28.90625 52.265625 29.425781 51.988281 C 29.941406 51.710938 30.472656 51.460938 31.015625 51.234375 C 31.558594 51.011719 32.113281 50.8125 32.675781 50.640625 C 33.238281 50.46875 33.808594 50.328125 34.386719 50.210938 C 34.960938 50.097656 35.542969 50.007812 36.128906 49.953125 C 36.714844 49.894531 37.300781 49.863281 37.886719 49.863281 Z M 259.425781 145.664062 L 259.425781 133.6875 L 235.476562 133.6875 L 235.476562 151.164062 C 235.476562 151.554688 235.4375 151.945312 235.359375 152.332031 C 235.285156 152.714844 235.171875 153.089844 235.019531 153.453125 C 234.871094 153.816406 234.683594 154.160156 234.464844 154.488281 C 234.246094 154.816406 234 155.117188 233.722656 155.394531 C 233.445312 155.675781 233.140625 155.921875 232.816406 156.140625 C 232.488281 156.359375 232.144531 156.542969 231.78125 156.695312 C 231.417969 156.84375 231.042969 156.957031 230.65625 157.035156 C 230.269531 157.113281 229.882812 157.148438 229.488281 157.148438 C 229.09375 157.148438 228.707031 157.113281 228.320312 157.035156 C 227.933594 156.957031 227.558594 156.84375 227.195312 156.695312 C 226.832031 156.542969 226.488281 156.359375 226.160156 156.140625 C 225.835938 155.921875 225.53125 155.675781 225.253906 155.394531 C 224.976562 155.117188 224.726562 154.816406 224.507812 154.488281 C 224.292969 154.160156 224.105469 153.816406 223.957031 153.453125 C 223.804688 153.089844 223.691406 152.714844 223.617188 152.332031 C 223.539062 151.945312 223.5 151.554688 223.5 151.164062 L 223.5 127.699219 C 223.5 127.308594 223.539062 126.917969 223.617188 126.53125 C 223.691406 126.148438 223.804688 125.773438 223.957031 125.410156 C 224.105469 125.046875 224.289062 124.699219 224.507812 124.375 C 224.726562 124.046875 224.976562 123.746094 225.253906 123.464844 C 225.53125 123.1875 225.835938 122.941406 226.160156 122.722656 C 226.488281 122.503906 226.832031 122.320312 227.195312 122.167969 C 227.558594 122.019531 227.933594 121.90625 228.320312 121.828125 C 228.707031 121.75 229.09375 121.714844 229.488281 121.714844 L 265.414062 121.714844 C 265.804688 121.714844 266.195312 121.75 266.582031 121.828125 C 266.96875 121.90625 267.339844 122.019531 267.703125 122.167969 C 268.066406 122.320312 268.414062 122.503906 268.738281 122.722656 C 269.066406 122.941406 269.371094 123.1875 269.648438 123.464844 C 269.925781 123.746094 270.171875 124.046875 270.390625 124.375 C 270.609375 124.699219 270.792969 125.046875 270.945312 125.410156 C 271.09375 125.773438 271.210938 126.148438 271.285156 126.53125 C 271.363281 126.917969 271.402344 127.308594 271.402344 127.699219 L 271.402344 145.664062 C 271.402344 146.054688 271.363281 146.445312 271.285156 146.832031 C 271.207031 147.214844 271.09375 147.589844 270.945312 147.953125 C 270.792969 148.316406 270.609375 148.664062 270.390625 148.988281 C 270.171875 149.316406 269.925781 149.617188 269.648438 149.898438 C 269.367188 150.175781 269.066406 150.421875 268.738281 150.640625 C 268.414062 150.859375 268.066406 151.042969 267.703125 151.195312 C 267.339844 151.34375 266.964844 151.457031 266.582031 151.535156 C 266.195312 151.613281 265.804688 151.652344 265.414062 151.652344 C 265.019531 151.652344 264.628906 151.613281 264.246094 151.535156 C 263.859375 151.457031 263.484375 151.34375 263.121094 151.195312 C 262.757812 151.042969 262.414062 150.859375 262.085938 150.640625 C 261.757812 150.421875 261.457031 150.175781 261.179688 149.898438 C 260.902344 149.617188 260.652344 149.316406 260.433594 148.988281 C 260.214844 148.664062 260.03125 148.316406 259.882812 147.953125 C 259.730469 147.589844 259.617188 147.214844 259.539062 146.832031 C 259.464844 146.445312 259.425781 146.054688 259.425781 145.664062 Z M 265.414062 187.574219 C 264.140625 187.574219 262.867188 187.605469 261.59375 187.667969 C 260.320312 187.730469 259.050781 187.824219 257.785156 187.949219 C 256.515625 188.074219 255.253906 188.230469 253.992188 188.417969 C 252.730469 188.605469 251.476562 188.824219 250.226562 189.070312 C 248.976562 189.320312 247.734375 189.597656 246.5 189.910156 C 245.265625 190.21875 244.035156 190.558594 242.816406 190.925781 C 241.597656 191.296875 240.390625 191.695312 239.191406 192.125 C 237.992188 192.554688 236.804688 193.011719 235.625 193.5 C 234.449219 193.988281 233.285156 194.503906 232.132812 195.046875 C 230.980469 195.59375 229.84375 196.164062 228.71875 196.765625 C 227.597656 197.367188 226.488281 197.996094 225.398438 198.648438 C 224.304688 199.304688 223.226562 199.984375 222.167969 200.695312 C 221.109375 201.402344 220.070312 202.132812 219.046875 202.894531 C 218.023438 203.652344 217.019531 204.4375 216.035156 205.242188 C 215.046875 206.050781 214.085938 206.882812 213.140625 207.738281 C 212.195312 208.59375 211.273438 209.472656 210.375 210.375 C 209.472656 211.273438 208.59375 212.195312 207.738281 213.140625 C 206.882812 214.085938 206.050781 215.046875 205.242188 216.035156 C 204.4375 217.019531 203.652344 218.023438 202.894531 219.046875 C 202.132812 220.070312 201.402344 221.109375 200.695312 222.167969 C 199.984375 223.226562 199.304688 224.304688 198.648438 225.398438 C 197.996094 226.488281 197.367188 227.597656 196.765625 228.71875 C 196.164062 229.84375 195.59375 230.980469 195.046875 232.132812 C 194.503906 233.285156 193.988281 234.449219 193.5 235.625 C 193.011719 236.804688 192.554688 237.992188 192.125 239.191406 C 191.695312 240.390625 191.296875 241.597656 190.925781 242.816406 C 190.558594 244.035156 190.21875 245.265625 189.910156 246.5 C 189.597656 247.734375 189.320312 248.976562 189.070312 250.226562 C 188.824219 251.476562 188.605469 252.730469 188.417969 253.992188 C 188.230469 255.253906 188.074219 256.515625 187.949219 257.785156 C 187.824219 259.050781 187.730469 260.320312 187.667969 261.59375 C 187.605469 262.867188 187.574219 264.140625 187.574219 265.414062 C 187.574219 266.6875 187.605469 267.960938 187.667969 269.230469 C 187.730469 270.503906 187.824219 271.773438 187.949219 273.042969 C 188.074219 274.308594 188.230469 275.574219 188.417969 276.835938 C 188.605469 278.09375 188.824219 279.347656 189.070312 280.597656 C 189.320312 281.847656 189.597656 283.089844 189.910156 284.324219 C 190.21875 285.5625 190.558594 286.789062 190.925781 288.007812 C 191.296875 289.226562 191.695312 290.4375 192.125 291.636719 C 192.554688 292.835938 193.011719 294.023438 193.5 295.199219 C 193.988281 296.378906 194.503906 297.542969 195.046875 298.691406 C 195.59375 299.84375 196.164062 300.980469 196.765625 302.105469 C 197.367188 303.230469 197.996094 304.335938 198.648438 305.429688 C 199.304688 306.523438 199.984375 307.597656 200.695312 308.65625 C 201.402344 309.714844 202.132812 310.757812 202.894531 311.78125 C 203.652344 312.804688 204.4375 313.808594 205.242188 314.792969 C 206.050781 315.777344 206.882812 316.742188 207.738281 317.683594 C 208.59375 318.628906 209.472656 319.550781 210.375 320.453125 C 211.273438 321.351562 212.195312 322.230469 213.140625 323.085938 C 214.085938 323.941406 215.046875 324.773438 216.035156 325.582031 C 217.019531 326.390625 218.023438 327.175781 219.046875 327.933594 C 220.070312 328.691406 221.109375 329.425781 222.167969 330.132812 C 223.226562 330.839844 224.304688 331.523438 225.398438 332.175781 C 226.488281 332.832031 227.597656 333.460938 228.71875 334.058594 C 229.84375 334.660156 230.980469 335.234375 232.132812 335.777344 C 233.285156 336.320312 234.449219 336.839844 235.625 337.324219 C 236.804688 337.8125 237.992188 338.269531 239.191406 338.699219 C 240.390625 339.128906 241.597656 339.527344 242.816406 339.898438 C 244.035156 340.269531 245.265625 340.609375 246.5 340.917969 C 247.734375 341.226562 248.976562 341.507812 250.226562 341.753906 C 251.476562 342.003906 252.730469 342.222656 253.992188 342.40625 C 255.253906 342.59375 256.515625 342.75 257.785156 342.875 C 259.050781 343 260.320312 343.09375 261.59375 343.15625 C 262.867188 343.21875 264.140625 343.25 265.414062 343.25 C 266.6875 343.25 267.960938 343.21875 269.230469 343.15625 C 270.503906 343.09375 271.773438 343 273.042969 342.875 C 274.308594 342.75 275.574219 342.59375 276.835938 342.40625 C 278.09375 342.222656 279.347656 342.003906 280.597656 341.753906 C 281.847656 341.507812 283.089844 341.226562 284.324219 340.917969 C 285.5625 340.609375 286.789062 340.269531 288.007812 339.898438 C 289.226562 339.527344 290.4375 339.128906 291.636719 338.699219 C 292.835938 338.269531 294.023438 337.8125 295.199219 337.324219 C 296.378906 336.839844 297.542969 336.320312 298.691406 335.777344 C 299.84375 335.234375 300.980469 334.660156 302.105469 334.058594 C 303.230469 333.460938 304.335938 332.832031 305.429688 332.175781 C 306.523438 331.523438 307.597656 330.839844 308.65625 330.132812 C 309.714844 329.425781 310.757812 328.691406 311.78125 327.933594 C 312.804688 327.175781 313.808594 326.390625 314.792969 325.582031 C 315.777344 324.773438 316.742188 323.941406 317.683594 323.085938 C 318.628906 322.230469 319.550781 321.351562 320.453125 320.453125 C 321.351562 319.550781 322.230469 318.628906 323.085938 317.683594 C 323.941406 316.742188 324.773438 315.777344 325.582031 314.792969 C 326.390625 313.808594 327.175781 312.804688 327.933594 311.78125 C 328.691406 310.757812 329.425781 309.714844 330.132812 308.65625 C 330.839844 307.597656 331.523438 306.523438 332.175781 305.429688 C 332.832031 304.335938 333.460938 303.230469 334.058594 302.105469 C 334.660156 300.980469 335.234375 299.84375 335.777344 298.691406 C 336.320312 297.542969 336.839844 296.378906 337.324219 295.199219 C 337.8125 294.023438 338.269531 292.835938 338.699219 291.636719 C 339.128906 290.4375 339.527344 289.226562 339.898438 288.007812 C 340.269531 286.789062 340.609375 285.5625 340.917969 284.324219 C 341.226562 283.089844 341.507812 281.847656 341.753906 280.597656 C 342.003906 279.347656 342.222656 278.09375 342.40625 276.835938 C 342.59375 275.574219 342.75 274.308594 342.875 273.042969 C 343 271.773438 343.09375 270.503906 343.15625 269.230469 C 343.21875 267.960938 343.25 266.6875 343.25 265.414062 C 343.25 264.140625 343.214844 262.867188 343.152344 261.59375 C 343.089844 260.324219 342.992188 259.054688 342.867188 257.785156 C 342.742188 256.519531 342.585938 255.253906 342.398438 253.996094 C 342.207031 252.738281 341.988281 251.484375 341.742188 250.234375 C 341.492188 248.984375 341.210938 247.742188 340.902344 246.507812 C 340.589844 245.273438 340.25 244.046875 339.878906 242.828125 C 339.507812 241.609375 339.109375 240.402344 338.679688 239.203125 C 338.25 238.003906 337.789062 236.816406 337.300781 235.640625 C 336.8125 234.464844 336.296875 233.300781 335.753906 232.148438 C 335.207031 230.996094 334.632812 229.859375 334.035156 228.738281 C 333.433594 227.617188 332.804688 226.507812 332.148438 225.414062 C 331.496094 224.324219 330.8125 223.25 330.105469 222.191406 C 329.398438 221.132812 328.664062 220.089844 327.90625 219.066406 C 327.148438 218.046875 326.363281 217.042969 325.554688 216.058594 C 324.746094 215.074219 323.914062 214.109375 323.058594 213.164062 C 322.203125 212.222656 321.328125 211.300781 320.425781 210.398438 C 319.527344 209.5 318.605469 208.621094 317.660156 207.765625 C 316.71875 206.910156 315.753906 206.078125 314.769531 205.269531 C 313.785156 204.460938 312.78125 203.679688 311.757812 202.921875 C 310.734375 202.160156 309.695312 201.429688 308.636719 200.71875 C 307.578125 200.011719 306.503906 199.332031 305.410156 198.675781 C 304.316406 198.019531 303.210938 197.394531 302.089844 196.792969 C 300.964844 196.191406 299.828125 195.617188 298.675781 195.074219 C 297.527344 194.527344 296.363281 194.011719 295.1875 193.523438 C 294.011719 193.035156 292.824219 192.578125 291.625 192.148438 C 290.425781 191.71875 289.214844 191.316406 288 190.945312 C 286.78125 190.578125 285.554688 190.234375 284.316406 189.925781 C 283.082031 189.613281 281.839844 189.335938 280.59375 189.085938 C 279.34375 188.835938 278.089844 188.617188 276.828125 188.429688 C 275.570312 188.242188 274.308594 188.085938 273.039062 187.957031 C 271.773438 187.832031 270.503906 187.738281 269.230469 187.671875 C 267.960938 187.609375 266.6875 187.578125 265.414062 187.574219 Z M 271.402344 330.972656 L 271.402344 319.300781 C 271.402344 318.90625 271.363281 318.519531 271.285156 318.132812 C 271.207031 317.746094 271.09375 317.371094 270.945312 317.007812 C 270.792969 316.644531 270.609375 316.300781 270.390625 315.972656 C 270.171875 315.648438 269.925781 315.34375 269.648438 315.066406 C 269.367188 314.789062 269.066406 314.539062 268.738281 314.320312 C 268.414062 314.105469 268.066406 313.917969 267.703125 313.769531 C 267.339844 313.617188 266.964844 313.503906 266.582031 313.429688 C 266.195312 313.351562 265.804688 313.3125 265.414062 313.3125 C 265.019531 313.3125 264.628906 313.351562 264.246094 313.429688 C 263.859375 313.503906 263.484375 313.617188 263.121094 313.769531 C 262.757812 313.917969 262.414062 314.105469 262.085938 314.320312 C 261.757812 314.539062 261.457031 314.789062 261.179688 315.066406 C 260.902344 315.34375 260.652344 315.648438 260.433594 315.972656 C 260.214844 316.300781 260.03125 316.644531 259.882812 317.007812 C 259.730469 317.371094 259.617188 317.746094 259.539062 318.132812 C 259.464844 318.519531 259.425781 318.90625 259.425781 319.300781 L 259.425781 330.972656 C 257.527344 330.796875 255.644531 330.539062 253.769531 330.199219 C 251.894531 329.859375 250.035156 329.441406 248.199219 328.941406 C 246.359375 328.441406 244.546875 327.863281 242.757812 327.207031 C 240.96875 326.546875 239.214844 325.816406 237.488281 325.003906 C 235.765625 324.195312 234.078125 323.3125 232.429688 322.359375 C 230.78125 321.402344 229.179688 320.375 227.621094 319.28125 C 226.058594 318.1875 224.550781 317.027344 223.09375 315.800781 C 221.632812 314.574219 220.230469 313.289062 218.882812 311.941406 C 217.535156 310.59375 216.25 309.191406 215.023438 307.734375 C 213.800781 306.273438 212.640625 304.765625 211.542969 303.207031 C 210.449219 301.648438 209.425781 300.042969 208.46875 298.394531 C 207.511719 296.746094 206.628906 295.0625 205.820312 293.335938 C 205.011719 291.613281 204.277344 289.855469 203.621094 288.066406 C 202.964844 286.28125 202.386719 284.464844 201.886719 282.628906 C 201.382812 280.789062 200.964844 278.933594 200.625 277.058594 C 200.285156 275.183594 200.03125 273.296875 199.855469 271.402344 L 211.527344 271.402344 C 211.917969 271.402344 212.308594 271.363281 212.695312 271.285156 C 213.078125 271.207031 213.453125 271.09375 213.816406 270.945312 C 214.179688 270.792969 214.523438 270.609375 214.851562 270.390625 C 215.179688 270.171875 215.480469 269.925781 215.757812 269.648438 C 216.039062 269.367188 216.285156 269.066406 216.503906 268.738281 C 216.722656 268.414062 216.90625 268.066406 217.058594 267.703125 C 217.207031 267.339844 217.320312 266.964844 217.398438 266.582031 C 217.476562 266.195312 217.511719 265.804688 217.511719 265.414062 C 217.511719 265.019531 217.476562 264.628906 217.398438 264.246094 C 217.320312 263.859375 217.207031 263.484375 217.058594 263.121094 C 216.90625 262.757812 216.722656 262.414062 216.503906 262.085938 C 216.285156 261.757812 216.039062 261.457031 215.757812 261.179688 C 215.480469 260.902344 215.179688 260.652344 214.851562 260.433594 C 214.523438 260.214844 214.179688 260.03125 213.816406 259.882812 C 213.453125 259.730469 213.078125 259.617188 212.695312 259.539062 C 212.308594 259.464844 211.917969 259.425781 211.527344 259.425781 L 199.855469 259.425781 C 200.03125 257.527344 200.285156 255.644531 200.625 253.769531 C 200.964844 251.894531 201.382812 250.035156 201.886719 248.199219 C 202.386719 246.359375 202.964844 244.546875 203.621094 242.757812 C 204.277344 240.96875 205.011719 239.214844 205.820312 237.488281 C 206.628906 235.765625 207.511719 234.078125 208.46875 232.429688 C 209.425781 230.78125 210.449219 229.179688 211.542969 227.621094 C 212.640625 226.058594 213.800781 224.550781 215.023438 223.09375 C 216.25 221.632812 217.535156 220.230469 218.882812 218.882812 C 220.230469 217.535156 221.632812 216.25 223.09375 215.023438 C 224.550781 213.800781 226.058594 212.640625 227.621094 211.542969 C 229.179688 210.449219 230.78125 209.425781 232.429688 208.46875 C 234.078125 207.511719 235.765625 206.628906 237.488281 205.820312 C 239.214844 205.011719 240.96875 204.277344 242.757812 203.621094 C 244.546875 202.964844 246.359375 202.386719 248.199219 201.886719 C 250.035156 201.382812 251.894531 200.964844 253.769531 200.625 C 255.644531 200.285156 257.527344 200.03125 259.425781 199.855469 L 259.425781 211.527344 C 259.425781 211.917969 259.464844 212.308594 259.539062 212.695312 C 259.617188 213.078125 259.730469 213.453125 259.882812 213.816406 C 260.03125 214.179688 260.214844 214.523438 260.433594 214.851562 C 260.652344 215.179688 260.902344 215.480469 261.179688 215.757812 C 261.457031 216.039062 261.757812 216.285156 262.085938 216.503906 C 262.414062 216.722656 262.757812 216.90625 263.121094 217.058594 C 263.484375 217.207031 263.859375 217.320312 264.246094 217.398438 C 264.628906 217.476562 265.019531 217.511719 265.414062 217.511719 C 265.804688 217.511719 266.195312 217.476562 266.582031 217.398438 C 266.964844 217.320312 267.339844 217.207031 267.703125 217.058594 C 268.066406 216.90625 268.414062 216.722656 268.738281 216.503906 C 269.066406 216.285156 269.367188 216.039062 269.648438 215.757812 C 269.925781 215.480469 270.171875 215.179688 270.390625 214.851562 C 270.609375 214.523438 270.792969 214.179688 270.945312 213.816406 C 271.09375 213.453125 271.207031 213.078125 271.285156 212.695312 C 271.363281 212.308594 271.402344 211.917969 271.402344 211.527344 L 271.402344 199.855469 C 273.296875 200.03125 275.183594 200.285156 277.058594 200.625 C 278.933594 200.964844 280.789062 201.382812 282.628906 201.886719 C 284.464844 202.386719 286.28125 202.964844 288.066406 203.621094 C 289.855469 204.277344 291.613281 205.011719 293.335938 205.820312 C 295.0625 206.628906 296.746094 207.511719 298.394531 208.46875 C 300.042969 209.425781 301.648438 210.449219 303.207031 211.542969 C 304.765625 212.640625 306.273438 213.800781 307.734375 215.023438 C 309.191406 216.25 310.59375 217.535156 311.941406 218.882812 C 313.289062 220.230469 314.574219 221.632812 315.800781 223.09375 C 317.027344 224.550781 318.1875 226.058594 319.28125 227.621094 C 320.375 229.179688 321.402344 230.78125 322.355469 232.429688 C 323.3125 234.078125 324.195312 235.765625 325.003906 237.488281 C 325.816406 239.214844 326.546875 240.96875 327.207031 242.757812 C 327.863281 244.546875 328.441406 246.359375 328.941406 248.199219 C 329.441406 250.035156 329.859375 251.894531 330.199219 253.769531 C 330.539062 255.644531 330.796875 257.527344 330.972656 259.425781 L 319.300781 259.425781 C 318.90625 259.425781 318.519531 259.464844 318.132812 259.539062 C 317.746094 259.617188 317.371094 259.730469 317.007812 259.882812 C 316.644531 260.03125 316.300781 260.214844 315.972656 260.433594 C 315.648438 260.652344 315.34375 260.902344 315.066406 261.179688 C 314.789062 261.457031 314.539062 261.757812 314.320312 262.085938 C 314.105469 262.414062 313.917969 262.757812 313.769531 263.121094 C 313.617188 263.484375 313.503906 263.859375 313.429688 264.246094 C 313.351562 264.628906 313.3125 265.019531 313.3125 265.414062 C 313.3125 265.804688 313.351562 266.195312 313.429688 266.582031 C 313.503906 266.964844 313.617188 267.339844 313.769531 267.703125 C 313.917969 268.066406 314.105469 268.414062 314.320312 268.738281 C 314.539062 269.066406 314.789062 269.367188 315.066406 269.648438 C 315.34375 269.925781 315.648438 270.171875 315.972656 270.390625 C 316.300781 270.609375 316.644531 270.792969 317.007812 270.945312 C 317.371094 271.09375 317.746094 271.207031 318.132812 271.285156 C 318.519531 271.363281 318.90625 271.402344 319.300781 271.402344 L 330.972656 271.402344 C 330.796875 273.296875 330.539062 275.183594 330.199219 277.058594 C 329.859375 278.933594 329.441406 280.789062 328.941406 282.628906 C 328.441406 284.464844 327.863281 286.28125 327.207031 288.066406 C 326.546875 289.855469 325.816406 291.613281 325.003906 293.335938 C 324.195312 295.0625 323.3125 296.746094 322.355469 298.394531 C 321.402344 300.042969 320.375 301.648438 319.28125 303.207031 C 318.1875 304.765625 317.027344 306.273438 315.800781 307.734375 C 314.574219 309.191406 313.289062 310.59375 311.941406 311.941406 C 310.59375 313.289062 309.191406 314.574219 307.734375 315.800781 C 306.273438 317.027344 304.765625 318.1875 303.207031 319.28125 C 301.648438 320.375 300.042969 321.402344 298.394531 322.355469 C 296.746094 323.3125 295.0625 324.195312 293.335938 325.003906 C 291.613281 325.816406 289.855469 326.546875 288.066406 327.207031 C 286.28125 327.863281 284.464844 328.441406 282.628906 328.941406 C 280.789062 329.441406 278.933594 329.859375 277.058594 330.199219 C 275.183594 330.539062 273.296875 330.796875 271.402344 330.972656 Z M 287.609375 279.140625 C 287.890625 279.417969 288.144531 279.722656 288.363281 280.046875 C 288.585938 280.375 288.773438 280.722656 288.929688 281.085938 C 289.082031 281.449219 289.199219 281.824219 289.277344 282.210938 C 289.359375 282.601562 289.398438 282.992188 289.398438 283.386719 C 289.402344 283.78125 289.363281 284.171875 289.289062 284.5625 C 289.214844 284.949219 289.101562 285.328125 288.949219 285.691406 C 288.800781 286.058594 288.613281 286.40625 288.394531 286.734375 C 288.175781 287.0625 287.925781 287.367188 287.644531 287.644531 C 287.367188 287.925781 287.0625 288.175781 286.734375 288.394531 C 286.40625 288.613281 286.058594 288.800781 285.691406 288.949219 C 285.328125 289.101562 284.949219 289.214844 284.5625 289.289062 C 284.171875 289.363281 283.78125 289.402344 283.386719 289.398438 C 282.992188 289.398438 282.601562 289.359375 282.210938 289.277344 C 281.824219 289.199219 281.449219 289.082031 281.085938 288.929688 C 280.722656 288.773438 280.375 288.585938 280.046875 288.363281 C 279.722656 288.144531 279.417969 287.890625 279.140625 287.609375 L 261.179688 269.644531 C 260.617188 269.085938 260.1875 268.4375 259.882812 267.703125 C 259.578125 266.96875 259.425781 266.207031 259.425781 265.414062 L 259.425781 235.476562 C 259.425781 235.082031 259.464844 234.691406 259.539062 234.308594 C 259.617188 233.921875 259.730469 233.546875 259.882812 233.183594 C 260.03125 232.820312 260.214844 232.476562 260.433594 232.148438 C 260.652344 231.820312 260.902344 231.519531 261.179688 231.242188 C 261.457031 230.964844 261.757812 230.714844 262.085938 230.496094 C 262.414062 230.277344 262.757812 230.09375 263.121094 229.945312 C 263.484375 229.792969 263.859375 229.679688 264.246094 229.601562 C 264.628906 229.527344 265.019531 229.488281 265.414062 229.488281 C 265.804688 229.488281 266.195312 229.527344 266.582031 229.601562 C 266.964844 229.679688 267.339844 229.792969 267.703125 229.945312 C 268.066406 230.09375 268.414062 230.277344 268.738281 230.496094 C 269.066406 230.714844 269.367188 230.964844 269.648438 231.242188 C 269.925781 231.519531 270.171875 231.820312 270.390625 232.148438 C 270.609375 232.476562 270.792969 232.820312 270.945312 233.183594 C 271.09375 233.546875 271.207031 233.921875 271.285156 234.308594 C 271.363281 234.691406 271.402344 235.082031 271.402344 235.476562 L 271.402344 262.933594 Z M 287.609375 279.140625 " fill-opacity="1" fill-rule="nonzero"/></g></svg>