<svg xmlns="http://www.w3.org/2000/svg" xmlns:xlink="http://www.w3.org/1999/xlink" width="500" zoomAndPan="magnify" viewBox="0 0 375 374.999991" height="500" preserveAspectRatio="xMidYMid meet" version="1.0"><defs><clipPath id="74cf460a99"><path d="M 5.761719 34.179688 L 369.511719 34.179688 L 369.511719 340.800781 L 5.761719 340.800781 Z M 5.761719 34.179688 " clip-rule="nonzero"/></clipPath></defs><g clip-path="url(#74cf460a99)"><path fill="#0e0e52" d="M 366.878906 75.394531 L 188.421875 34.265625 C 187.90625 34.148438 187.390625 34.148438 186.875 34.265625 L 8.421875 75.394531 C 8.042969 75.480469 7.691406 75.628906 7.363281 75.835938 C 7.035156 76.042969 6.75 76.296875 6.507812 76.601562 C 6.265625 76.902344 6.082031 77.238281 5.953125 77.605469 C 5.824219 77.972656 5.761719 78.347656 5.761719 78.734375 L 5.761719 337.191406 C 5.761719 337.644531 5.847656 338.082031 6.023438 338.5 C 6.195312 338.921875 6.445312 339.292969 6.765625 339.613281 C 7.089844 339.933594 7.460938 340.183594 7.878906 340.355469 C 8.300781 340.53125 8.738281 340.617188 9.195312 340.617188 L 35.003906 340.617188 C 35.460938 340.617188 35.898438 340.53125 36.316406 340.355469 C 36.738281 340.183594 37.109375 339.933594 37.429688 339.613281 C 37.753906 339.292969 38 338.921875 38.175781 338.5 C 38.347656 338.082031 38.4375 337.644531 38.4375 337.191406 L 38.4375 151.992188 L 336.863281 151.992188 L 336.863281 337.191406 C 336.863281 337.644531 336.953125 338.082031 337.125 338.5 C 337.300781 338.921875 337.546875 339.292969 337.871094 339.613281 C 338.191406 339.933594 338.5625 340.183594 338.984375 340.355469 C 339.402344 340.53125 339.839844 340.617188 340.296875 340.617188 L 366.105469 340.617188 C 366.5625 340.617188 367 340.53125 367.421875 340.355469 C 367.839844 340.183594 368.210938 339.933594 368.535156 339.613281 C 368.855469 339.292969 369.101562 338.921875 369.277344 338.5 C 369.453125 338.082031 369.539062 337.644531 369.539062 337.191406 L 369.539062 78.734375 C 369.539062 78.347656 369.476562 77.972656 369.347656 77.605469 C 369.21875 77.238281 369.035156 76.902344 368.792969 76.601562 C 368.550781 76.296875 368.265625 76.042969 367.9375 75.835938 C 367.609375 75.628906 367.257812 75.480469 366.878906 75.394531 Z M 12.625 81.460938 L 187.652344 41.121094 L 362.675781 81.460938 L 362.675781 114.1875 L 12.625 114.1875 Z M 31.574219 333.761719 L 12.625 333.761719 L 12.625 121.039062 L 31.574219 121.039062 Z M 38.4375 145.136719 L 38.4375 121.039062 L 336.863281 121.039062 L 336.863281 145.136719 Z M 362.675781 333.761719 L 343.726562 333.761719 L 343.726562 121.039062 L 362.675781 121.039062 Z M 242.769531 224.433594 C 242.484375 223.847656 242.0625 223.378906 241.503906 223.03125 C 240.949219 222.6875 240.34375 222.511719 239.6875 222.511719 L 135.613281 222.511719 C 134.957031 222.511719 134.351562 222.6875 133.796875 223.03125 C 133.242188 223.378906 132.820312 223.847656 132.53125 224.433594 L 114.179688 261.882812 C 114.050781 262.144531 113.957031 262.417969 113.898438 262.703125 C 113.839844 262.988281 113.820312 263.277344 113.835938 263.566406 C 113.847656 263.859375 113.902344 264.140625 113.988281 264.417969 C 114.074219 264.695312 114.195312 264.957031 114.351562 265.207031 C 114.503906 265.453125 114.6875 265.675781 114.898438 265.875 C 115.109375 266.078125 115.34375 266.246094 115.597656 266.386719 C 115.851562 266.527344 116.121094 266.636719 116.402344 266.707031 C 116.683594 266.78125 116.972656 266.816406 117.261719 266.816406 L 258.039062 266.816406 C 258.328125 266.816406 258.617188 266.78125 258.898438 266.707031 C 259.179688 266.636719 259.449219 266.527344 259.703125 266.386719 C 259.957031 266.246094 260.191406 266.078125 260.402344 265.875 C 260.613281 265.675781 260.796875 265.453125 260.949219 265.207031 C 261.105469 264.957031 261.226562 264.695312 261.3125 264.417969 C 261.398438 264.140625 261.449219 263.859375 261.464844 263.566406 C 261.480469 263.277344 261.460938 262.988281 261.402344 262.703125 C 261.34375 262.417969 261.25 262.144531 261.121094 261.882812 Z M 122.765625 259.964844 L 137.75 229.367188 L 237.550781 229.367188 L 252.535156 259.964844 Z M 275.082031 245.890625 L 268.5625 245.890625 L 254.433594 217.050781 C 253.824219 215.816406 253.054688 214.691406 252.128906 213.667969 C 251.207031 212.648438 250.160156 211.777344 248.988281 211.046875 C 247.820312 210.320312 246.574219 209.765625 245.25 209.382812 C 243.925781 209.003906 242.574219 208.808594 241.195312 208.804688 L 134.105469 208.804688 C 132.726562 208.808594 131.375 209.003906 130.050781 209.382812 C 128.726562 209.765625 127.480469 210.320312 126.3125 211.046875 C 125.140625 211.777344 124.09375 212.652344 123.167969 213.671875 C 122.246094 214.691406 121.476562 215.816406 120.867188 217.050781 L 106.738281 245.890625 L 100.214844 245.890625 C 99.179688 245.890625 98.152344 245.988281 97.136719 246.1875 C 96.117188 246.382812 95.128906 246.679688 94.171875 247.074219 C 93.214844 247.46875 92.300781 247.949219 91.4375 248.523438 C 90.574219 249.09375 89.773438 249.746094 89.039062 250.476562 C 88.304688 251.203125 87.648438 252 87.066406 252.859375 C 86.488281 253.714844 86 254.625 85.601562 255.578125 C 85.199219 256.535156 84.898438 257.519531 84.691406 258.535156 C 84.484375 259.546875 84.378906 260.574219 84.375 261.609375 C 84.375 262.644531 84.46875 263.667969 84.667969 264.683594 C 84.867188 265.703125 85.164062 266.6875 85.554688 267.644531 C 85.949219 268.605469 86.433594 269.515625 87.003906 270.378906 C 87.578125 271.242188 88.230469 272.039062 88.957031 272.773438 C 89.6875 273.507812 90.484375 274.167969 91.34375 274.746094 C 92.203125 275.324219 93.109375 275.8125 94.066406 276.210938 C 95.023438 276.613281 96.007812 276.914062 97.023438 277.121094 C 98.039062 277.328125 99.066406 277.433594 100.101562 277.4375 L 100.101562 333.027344 C 100.101562 333.484375 100.191406 333.921875 100.363281 334.339844 C 100.539062 334.761719 100.785156 335.132812 101.109375 335.453125 C 101.429688 335.773438 101.800781 336.023438 102.222656 336.195312 C 102.640625 336.371094 103.078125 336.457031 103.535156 336.457031 L 145.742188 336.457031 C 146.199219 336.457031 146.636719 336.371094 147.054688 336.195312 C 147.476562 336.023438 147.847656 335.773438 148.167969 335.453125 C 148.492188 335.132812 148.738281 334.761719 148.914062 334.339844 C 149.085938 333.921875 149.175781 333.484375 149.175781 333.027344 L 149.175781 316.582031 L 226.128906 316.582031 L 226.128906 333.027344 C 226.128906 333.484375 226.214844 333.921875 226.390625 334.339844 C 226.5625 334.761719 226.8125 335.132812 227.132812 335.453125 C 227.457031 335.773438 227.828125 336.023438 228.246094 336.195312 C 228.667969 336.371094 229.105469 336.457031 229.558594 336.457031 L 271.765625 336.457031 C 272.21875 336.457031 272.65625 336.371094 273.078125 336.195312 C 273.496094 336.023438 273.867188 335.773438 274.191406 335.453125 C 274.511719 335.132812 274.761719 334.761719 274.933594 334.339844 C 275.109375 333.921875 275.195312 333.484375 275.195312 333.027344 L 275.195312 277.4375 C 276.230469 277.433594 277.257812 277.328125 278.273438 277.121094 C 279.289062 276.914062 280.277344 276.613281 281.230469 276.210938 C 282.1875 275.8125 283.09375 275.324219 283.953125 274.746094 C 284.8125 274.164062 285.609375 273.507812 286.339844 272.773438 C 287.070312 272.039062 287.71875 271.242188 288.292969 270.378906 C 288.867188 269.515625 289.347656 268.605469 289.742188 267.644531 C 290.132812 266.6875 290.429688 265.703125 290.628906 264.683594 C 290.828125 263.667969 290.925781 262.644531 290.921875 261.609375 C 290.917969 260.574219 290.8125 259.546875 290.605469 258.535156 C 290.402344 257.519531 290.097656 256.535156 289.699219 255.578125 C 289.296875 254.625 288.808594 253.71875 288.230469 252.859375 C 287.652344 252 286.996094 251.207031 286.257812 250.476562 C 285.523438 249.746094 284.722656 249.09375 283.859375 248.523438 C 282.996094 247.949219 282.085938 247.46875 281.128906 247.074219 C 280.167969 246.679688 279.179688 246.386719 278.164062 246.1875 C 277.144531 245.988281 276.121094 245.890625 275.082031 245.890625 Z M 106.96875 329.605469 L 106.96875 316.582031 L 142.3125 316.582031 L 142.3125 329.601562 Z M 232.992188 329.605469 L 232.992188 316.582031 L 268.335938 316.582031 L 268.335938 329.601562 Z M 275.082031 270.582031 L 271.765625 270.582031 C 271.308594 270.582031 270.871094 270.671875 270.449219 270.84375 C 270.03125 271.019531 269.660156 271.265625 269.335938 271.585938 C 269.015625 271.910156 268.769531 272.277344 268.59375 272.699219 C 268.417969 273.117188 268.332031 273.554688 268.332031 274.011719 L 268.332031 309.726562 L 106.96875 309.726562 L 106.96875 274.011719 C 106.96875 273.554688 106.878906 273.117188 106.707031 272.699219 C 106.53125 272.277344 106.285156 271.910156 105.960938 271.585938 C 105.640625 271.265625 105.269531 271.019531 104.847656 270.84375 C 104.429688 270.671875 103.992188 270.582031 103.535156 270.582031 L 100.214844 270.582031 C 99.628906 270.582031 99.050781 270.527344 98.476562 270.410156 C 97.898438 270.296875 97.339844 270.128906 96.800781 269.902344 C 96.257812 269.679688 95.742188 269.40625 95.257812 269.082031 C 94.769531 268.753906 94.316406 268.386719 93.902344 267.972656 C 93.488281 267.558594 93.117188 267.105469 92.792969 266.621094 C 92.46875 266.132812 92.191406 265.617188 91.96875 265.078125 C 91.742188 264.535156 91.574219 263.980469 91.460938 263.40625 C 91.34375 262.832031 91.289062 262.25 91.289062 261.664062 C 91.289062 261.078125 91.34375 260.5 91.460938 259.925781 C 91.574219 259.351562 91.742188 258.792969 91.96875 258.253906 C 92.191406 257.710938 92.46875 257.195312 92.792969 256.710938 C 93.117188 256.222656 93.488281 255.773438 93.902344 255.359375 C 94.316406 254.945312 94.769531 254.574219 95.257812 254.25 C 95.742188 253.925781 96.257812 253.648438 96.800781 253.425781 C 97.339844 253.203125 97.898438 253.03125 98.476562 252.917969 C 99.050781 252.804688 99.628906 252.746094 100.214844 252.746094 L 108.882812 252.746094 C 109.535156 252.746094 110.144531 252.574219 110.699219 252.226562 C 111.253906 251.882812 111.675781 251.414062 111.964844 250.824219 L 127.039062 220.066406 C 127.363281 219.40625 127.773438 218.804688 128.269531 218.261719 C 128.761719 217.714844 129.324219 217.25 129.949219 216.859375 C 130.570312 216.46875 131.238281 216.175781 131.945312 215.96875 C 132.652344 215.765625 133.375 215.664062 134.109375 215.660156 L 241.195312 215.660156 C 241.929688 215.664062 242.652344 215.765625 243.359375 215.96875 C 244.066406 216.175781 244.734375 216.46875 245.359375 216.859375 C 245.980469 217.25 246.542969 217.714844 247.035156 218.261719 C 247.53125 218.804688 247.941406 219.40625 248.265625 220.066406 L 263.339844 250.824219 C 263.628906 251.414062 264.050781 251.882812 264.605469 252.226562 C 265.160156 252.574219 265.769531 252.746094 266.421875 252.746094 L 275.082031 252.746094 C 275.667969 252.746094 276.25 252.804688 276.824219 252.917969 C 277.398438 253.03125 277.957031 253.203125 278.5 253.425781 C 279.042969 253.648438 279.554688 253.925781 280.042969 254.25 C 280.53125 254.574219 280.980469 254.945312 281.394531 255.359375 C 281.8125 255.773438 282.179688 256.222656 282.507812 256.710938 C 282.832031 257.195312 283.109375 257.710938 283.332031 258.253906 C 283.554688 258.792969 283.726562 259.351562 283.839844 259.925781 C 283.953125 260.5 284.011719 261.078125 284.011719 261.664062 C 284.011719 262.25 283.953125 262.832031 283.839844 263.40625 C 283.726562 263.980469 283.554688 264.535156 283.332031 265.078125 C 283.109375 265.617188 282.832031 266.132812 282.507812 266.621094 C 282.179688 267.105469 281.8125 267.558594 281.394531 267.972656 C 280.980469 268.386719 280.53125 268.753906 280.042969 269.078125 C 279.554688 269.40625 279.042969 269.679688 278.5 269.902344 C 277.957031 270.128906 277.398438 270.296875 276.824219 270.410156 C 276.25 270.527344 275.667969 270.582031 275.082031 270.582031 Z M 149.761719 279.078125 L 119.011719 274.867188 C 118.484375 274.789062 117.964844 274.832031 117.460938 275 C 116.953125 275.167969 116.511719 275.441406 116.136719 275.820312 C 115.757812 276.191406 115.480469 276.628906 115.304688 277.128906 C 115.128906 277.632812 115.074219 278.144531 115.136719 278.671875 L 117.539062 298.542969 C 117.589844 298.960938 117.710938 299.351562 117.90625 299.722656 C 118.101562 300.09375 118.355469 300.417969 118.667969 300.699219 C 118.984375 300.976562 119.335938 301.1875 119.726562 301.335938 C 120.121094 301.484375 120.523438 301.558594 120.945312 301.558594 L 151.699219 301.558594 C 151.949219 301.5625 152.191406 301.535156 152.433594 301.480469 C 152.675781 301.429688 152.910156 301.351562 153.136719 301.25 C 153.359375 301.144531 153.570312 301.019531 153.769531 300.871094 C 153.96875 300.722656 154.148438 300.554688 154.308594 300.367188 C 154.46875 300.179688 154.609375 299.976562 154.726562 299.757812 C 154.84375 299.539062 154.933594 299.3125 155.003906 299.074219 C 155.070312 298.835938 155.113281 298.59375 155.125 298.347656 C 155.140625 298.101562 155.128906 297.855469 155.09375 297.609375 L 152.679688 281.953125 C 152.625 281.589844 152.511719 281.242188 152.34375 280.914062 C 152.179688 280.585938 151.960938 280.289062 151.699219 280.03125 C 151.4375 279.773438 151.140625 279.5625 150.808594 279.398438 C 150.476562 279.234375 150.128906 279.128906 149.761719 279.078125 Z M 123.992188 294.703125 L 122.484375 282.257812 L 146.289062 285.519531 L 147.703125 294.703125 Z M 256.296875 274.867188 L 225.539062 279.082031 C 225.171875 279.132812 224.824219 279.238281 224.492188 279.402344 C 224.160156 279.566406 223.863281 279.777344 223.601562 280.035156 C 223.335938 280.292969 223.121094 280.585938 222.953125 280.917969 C 222.785156 281.246094 222.671875 281.59375 222.617188 281.957031 L 220.214844 297.613281 C 220.175781 297.859375 220.164062 298.101562 220.179688 298.351562 C 220.195312 298.597656 220.238281 298.839844 220.304688 299.078125 C 220.371094 299.3125 220.464844 299.542969 220.582031 299.757812 C 220.699219 299.976562 220.839844 300.179688 221 300.367188 C 221.160156 300.554688 221.339844 300.722656 221.539062 300.871094 C 221.734375 301.019531 221.945312 301.144531 222.171875 301.25 C 222.394531 301.351562 222.628906 301.429688 222.871094 301.480469 C 223.113281 301.535156 223.359375 301.5625 223.605469 301.558594 L 254.355469 301.558594 C 254.773438 301.558594 255.179688 301.484375 255.574219 301.335938 C 255.964844 301.1875 256.316406 300.976562 256.628906 300.695312 C 256.945312 300.417969 257.199219 300.09375 257.394531 299.722656 C 257.585938 299.351562 257.710938 298.960938 257.761719 298.542969 L 260.171875 278.671875 C 260.238281 278.144531 260.179688 277.632812 260.003906 277.128906 C 259.832031 276.628906 259.554688 276.191406 259.175781 275.820312 C 258.796875 275.441406 258.355469 275.167969 257.847656 275 C 257.339844 274.832031 256.824219 274.789062 256.296875 274.867188 Z M 251.308594 294.707031 L 227.601562 294.707031 L 229.011719 285.523438 L 252.824219 282.261719 Z M 251.308594 294.707031 " fill-opacity="1" fill-rule="nonzero"/></g></svg>